# This file uses centimeters as units for non-parametric coordinates.

mtllib Rock4.mtl
g default
v 0.361152 -0.270854 -0.524379
v 0.203524 -0.408180 -0.629772
v -0.040808 -0.270854 -0.607704
v -0.547957 -0.206380 -0.925297
v -0.744733 -0.293993 -0.949012
v -0.706450 -0.206380 -0.707149
v -0.623269 -0.356354 0.148042
v -0.642445 -0.443967 0.333365
v -0.464775 -0.356354 0.366189
v 0.060565 -0.175252 0.622697
v 0.241345 -0.384888 0.636049
v 0.331915 -0.297274 0.471023
v 0.625837 -0.297274 0.066474
v 0.738411 -0.384888 -0.048104
v 0.610935 -0.175252 -0.134823
v -0.045802 0.034167 -0.198106
v -0.215727 0.025981 -0.474569
v -0.268501 -0.106348 -0.239262
v -0.176796 0.034167 -0.017808
v 0.205020 -0.040964 0.059307
v -0.072931 -0.486045 0.130869
v 0.217813 -0.488817 0.079429
vt 0.000977 0.756319
vt 0.363957 0.891835
vt 0.496611 0.460197
vt 0.508796 0.382184
vt 0.678547 0.148567
vt 0.158213 0.934280
vt 0.672651 0.070988
vt 0.162253 0.000977
vt 0.447385 0.815612
vt 0.211309 0.054026
vt 0.020691 0.271163
vt 0.570305 0.850931
vt 0.067208 0.357464
vt 0.302700 0.557609
vt 0.313607 0.620565
vt 0.924426 0.800232
vt 0.773389 0.996180
vt 0.743834 0.864607
vt 0.135758 0.806755
vt 0.198632 0.659064
vt 0.292399 0.623127
vt 0.522067 0.616720
vt 0.591793 0.622215
vt 0.745927 0.639900
vt 0.818592 0.700814
vt 0.899643 0.751133
vt 0.999023 0.951885
vt 0.595345 0.347751
vt 0.591531 0.026641
vt 0.153437 0.096409
vt 0.098636 0.426016
vt 0.388932 0.586636
vt 0.258832 0.261132
vt 0.265029 0.363504
vt 0.048059 0.962845
vt 0.000977 0.387884
vt 0.339871 0.803711
vt 0.345096 0.833078
vt 0.609648 0.930532
vt 0.759389 0.098128
vt 0.280730 0.030571
vt 0.237739 0.544239
vt 0.497250 0.907246
vn 0.340762 0.756024 -0.558846
vn 0.340762 0.756025 -0.558846
vn 0.340762 0.756025 -0.558846
vn 0.340762 0.756024 -0.558846
vn 0.779438 -0.034069 -0.625552
vn 0.779438 -0.034069 -0.625552
vn 0.779438 -0.034069 -0.625552
vn 0.779438 -0.034069 -0.625552
vn 0.413656 0.264751 -0.871089
vn 0.413656 0.264751 -0.871089
vn 0.413656 0.264751 -0.871089
vn 0.413656 0.264751 -0.871089
vn -0.447432 0.892800 0.052080
vn -0.447432 0.892800 0.052080
vn -0.447432 0.892800 0.052080
vn -0.447432 0.892800 0.052080
vn -0.954129 0.273766 0.121202
vn -0.954129 0.273766 0.121202
vn -0.954129 0.273766 0.121202
vn -0.954129 0.273766 0.121202
vn -0.630038 0.768298 0.113005
vn -0.630038 0.768298 0.113005
vn -0.630038 0.768298 0.113005
vn -0.630038 0.768298 0.113005
vn -0.358523 -0.064758 0.931272
vn -0.358523 -0.064758 0.931272
vn -0.358523 -0.064758 0.931272
vn -0.358523 -0.064758 0.931272
vn 0.306803 0.905096 0.294402
vn 0.306803 0.905096 0.294402
vn 0.306803 0.905096 0.294402
vn 0.306803 0.905096 0.294402
vn 0.780888 0.261401 0.567348
vn 0.780888 0.261401 0.567348
vn 0.780888 0.261401 0.567348
vn 0.780888 0.261401 0.567348
vn 0.381646 0.908643 0.169453
vn 0.381646 0.908643 0.169453
vn 0.381646 0.908643 0.169453
vn 0.381646 0.908643 0.169453
vn 0.022928 -0.982928 0.182559
vn 0.022928 -0.982928 0.182559
vn 0.022928 -0.982928 0.182559
vn 0.484224 0.579395 -0.655613
vn 0.484224 0.579395 -0.655613
vn 0.484224 0.579395 -0.655613
vn -0.412710 0.889496 0.196133
vn -0.412710 0.889496 0.196133
vn -0.412710 0.889496 0.196133
vn -0.474056 0.769818 0.427378
vn -0.474056 0.769818 0.427378
vn -0.474056 0.769818 0.427378
vn 0.482772 0.802435 0.350754
vn 0.482772 0.802435 0.350754
vn 0.482772 0.802435 0.350754
vn 0.312688 0.856483 -0.410686
vn 0.312688 0.856483 -0.410686
vn 0.312688 0.856483 -0.410686
vn 0.180199 0.460305 -0.869280
vn 0.180199 0.460305 -0.869280
vn 0.180199 0.460305 -0.869280
vn -0.365286 0.892262 -0.265396
vn -0.365286 0.892262 -0.265396
vn -0.365286 0.892262 -0.265396
vn -0.465731 0.817678 0.338374
vn -0.465731 0.817678 0.338374
vn -0.465731 0.817678 0.338374
vn 0.582418 0.540898 0.606810
vn 0.582418 0.540898 0.606810
vn 0.582418 0.540898 0.606810
vn 0.756232 0.582846 0.297329
vn 0.756232 0.582846 0.297329
vn 0.756232 0.582846 0.297329
vn -0.458373 0.824006 -0.333028
vn -0.458373 0.824006 -0.333028
vn -0.458373 0.824006 -0.333028
vn 0.167860 0.978238 0.121957
vn 0.167860 0.978238 0.121957
vn 0.167860 0.978238 0.121957
vn -0.547483 0.775861 0.313532
vn -0.547483 0.775861 0.313532
vn -0.547483 0.775861 0.313532
vn 0.232606 -0.957776 0.168998
vn 0.232606 -0.957776 0.168998
vn 0.232606 -0.957776 0.168998
vn -0.002157 -0.980274 0.197633
vn -0.002157 -0.980274 0.197633
vn -0.002157 -0.980274 0.197633
vn -0.110944 -0.988082 -0.106706
vn -0.110944 -0.988082 -0.106706
vn -0.110944 -0.988082 -0.106706
vn -0.066330 -0.989881 -0.125439
vn -0.066330 -0.989882 -0.125439
vn -0.066330 -0.989881 -0.125439
vn -0.066330 -0.989881 -0.125439
vn 0.167381 -0.979196 -0.114708
vn 0.167381 -0.979196 -0.114708
vn 0.167381 -0.979196 -0.114708
s off
g pPyramid1
usemtl initialShadingGroup
f 1/1/1 3/19/2 17/6/3 16/35/4
f 2/4/5 1/3/6 15/32/7 14/14/8
f 3/28/9 2/4/10 5/7/11 4/5/12
f 4/20/13 6/21/14 18/9/15 17/37/16
f 6/29/17 5/7/18 8/10/19 7/41/20
f 7/22/21 9/23/22 19/12/23 18/9/24
f 9/30/25 8/10/26 11/13/27 10/11/28
f 10/24/29 12/25/30 20/18/31 19/12/32
f 12/31/33 11/13/34 14/14/35 13/42/36
f 13/26/37 15/16/38 16/17/39 20/18/40
f 21/33/41 22/34/42 11/13/43
f 3/19/44 4/38/45 17/6/46
f 6/21/47 7/22/48 18/9/49
f 9/23/50 10/24/51 19/12/52
f 12/25/53 13/26/54 20/18/55
f 15/16/56 1/27/57 16/17/58
f 1/3/59 2/4/60 3/28/61
f 4/5/62 5/7/63 6/40/64
f 7/8/65 8/10/66 9/30/67
f 10/11/68 11/13/69 12/36/70
f 13/15/71 14/14/72 15/32/73
f 16/43/74 18/9/75 19/12/76
f 16/39/77 19/12/78 20/18/79
f 16/2/80 17/37/81 18/9/82
f 22/34/83 14/14/84 11/13/85
f 8/10/86 21/33/87 11/13/88
f 5/7/89 21/33/90 8/10/91
f 2/4/92 22/34/93 21/33/94 5/7/95
f 2/4/96 14/14/97 22/34/98
