# author: headus 3D tools
#  using: ply2obj v1.9
#   from: uvlayout v2.10.00
# 72 vertices
v 1.7920000 1.7620000 1.1220000
v 1.4497101 2.8175580 1.1220000
v 0.5535840 3.4699332 1.1220000
v -0.5540878 3.4699332 1.1220000
v -1.4502142 2.8175580 1.1220000
v -1.7925040 1.7620009 1.1220000
v 1.5844281 1.5485620 2.2438229
v 1.2817810 2.4808290 2.2438229
v 0.4894409 3.0564979 2.2438229
v -0.4899454 3.0564979 2.2438229
v -1.2822854 2.4808290 2.2438229
v -1.5849320 1.5485620 2.2438229
v 2.3196231 1.5548930 2.2438229
v 1.6022891 2.7192071 2.2438229
v 0.6118650 3.4387930 2.2438229
v -0.6123680 3.4387930 2.2438229
v -1.6027940 2.7192081 2.2438229
v -2.3201280 1.5548930 2.2438229
v 2.6891070 1.7818240 1.1220000
v 2.1754849 3.0994958 1.1220000
v 0.6920430 3.9133382 1.1220000
v -0.6925466 3.9133382 1.1220000
v -2.1759892 3.0994969 1.1220000
v -2.6896108 1.7818240 1.1220000
v 2.6479121 2.1411409 0.0001771
v 2.1421581 3.6976920 0.0001771
v 0.8180761 4.4652680 0.0001771
v -0.8185792 4.4652680 0.0001771
v -2.1426620 3.6976920 0.0001771
v -2.6484160 2.1411409 0.0001771
v 3.0097650 2.4569779 -1.1216460
v 2.4349029 4.2262214 -1.1216460
v 0.9298941 5.3196732 -1.1216460
v -0.9303982 5.3196732 -1.1216460
v -2.4354072 4.2262214 -1.1216460
v -3.0102700 2.4569779 -1.1216460
v 3.7984460 3.1636191 -2.2434692
v 3.0729602 5.3964388 -2.2434692
v 1.1736111 6.7763968 -2.2434692
v -1.1741140 6.7763968 -2.2434692
v -3.0734628 5.3964388 -2.2434692
v -3.7989500 3.1636191 -2.2434692
v 1.7920000 -0.1153592 1.1220000
v 3.0259149 -0.0968442 1.1220000
v 3.0063962 -0.0920762 2.2438229
v 1.9073010 -0.0966600 2.2438229
v 2.6479121 -0.0615680 0.0001771
v 3.0097650 -0.0299952 -1.1216460
v 3.7984460 0.0261418 -2.2434692
v -3.0102700 -0.0299952 -1.1216460
v -3.7989500 0.0261418 -2.2434692
v -2.6484160 -0.0615692 0.0001771
v -1.7925040 -0.1153592 1.1220000
v -3.0264188 -0.0968442 1.1220000
v -1.9078048 -0.0966600 2.2438229
v -3.0069004 -0.0920762 2.2438229
v 1.8391171 4.5153508 1.1020390
v 1.0498291 4.8853250 1.1567329
v 2.0218439 4.7266312 0.1234111
v 0.8834630 5.2914912 0.1880620
v -1.0503330 4.8853260 1.1567329
v -1.8396212 4.5153508 1.1020390
v -0.8839670 5.2914912 0.1880620
v -2.0223480 4.7266312 0.1234111
v 3.1950319 1.7818240 1.1220000
v 3.7767322 2.1411409 0.0001771
v 3.1950319 -0.0968442 1.1220000
v 3.7767322 -0.0615680 0.0001771
v -3.1955360 1.7818240 1.1220000
v -3.7772360 2.1411409 0.0001771
v -3.7772360 -0.0615692 0.0001771
v -3.1955360 -0.0968442 1.1220000
# 180 normals
vn -0.925929 -0.300403 -0.228560
vn -0.975188 -0.181530 -0.126106
vn -0.980223 -0.163737 -0.110969
vn -0.925929 -0.300403 -0.228560
vn -0.558353 -0.767625 -0.314411
vn -0.558353 -0.767625 -0.314411
vn -0.558353 -0.767625 -0.314411
vn -0.558353 -0.767625 -0.314411
vn 0.000000 -0.938229 -0.345724
vn 0.000000 -0.938229 -0.345724
vn 0.000000 -0.938229 -0.345724
vn 0.000000 -0.938229 -0.345724
vn 0.558353 -0.767625 -0.314411
vn 0.558353 -0.767625 -0.314411
vn 0.558353 -0.767625 -0.314411
vn 0.558353 -0.767625 -0.314411
vn 0.975188 -0.181530 -0.126106
vn 0.925929 -0.300403 -0.228560
vn 0.925929 -0.300403 -0.228560
vn 0.980223 -0.163737 -0.110969
vn 0.000000 0.000000 1.000000
vn 0.000000 0.000000 1.000000
vn 0.000000 0.000000 1.000000
vn 0.000000 0.000000 1.000000
vn 0.000000 0.000000 1.000000
vn 0.000000 0.000000 1.000000
vn 0.000000 0.000000 1.000000
vn 0.000000 0.000000 1.000000
vn 0.000000 0.000000 1.000000
vn 0.000000 0.000000 1.000000
vn 0.000000 0.000000 1.000000
vn 0.000000 0.000000 1.000000
vn 0.802356 0.397851 0.444729
vn 0.891320 0.332998 0.307361
vn 0.904077 0.337881 0.261582
vn 0.894677 0.365959 0.255844
vn 0.475462 0.767076 0.430660
vn 0.475462 0.767076 0.430660
vn 0.475462 0.767076 0.430660
vn 0.475462 0.767076 0.430660
vn 0.000000 0.920985 0.389581
vn 0.000000 0.920985 0.389581
vn 0.000000 0.907862 0.419154
vn 0.000000 0.907862 0.419154
vn -0.475462 0.767076 0.430660
vn -0.475462 0.767076 0.430660
vn -0.475462 0.767076 0.430660
vn -0.475462 0.767076 0.430660
vn -0.891320 0.332998 0.307361
vn -0.802356 0.397851 0.444729
vn -0.894677 0.365959 0.255844
vn -0.904077 0.337881 0.261582
vn 0.946438 0.174449 0.271531
vn 0.908686 0.304370 0.285418
vn 0.433193 0.858024 0.275652
vn 0.433193 0.858024 0.275652
vn 0.433193 0.858024 0.275652
vn 0.433193 0.858024 0.275652
vn 0.000000 0.840627 0.541415
vn 0.000000 0.840627 0.541415
vn -0.433193 0.858024 0.275652
vn -0.433193 0.858024 0.275652
vn -0.433193 0.858024 0.275652
vn -0.433193 0.858024 0.275652
vn -0.908686 0.304370 0.285418
vn -0.946438 0.174449 0.271531
vn 0.852713 0.105902 0.511506
vn 0.775987 0.252091 0.578038
vn 0.468321 0.711866 0.523256
vn 0.468321 0.711866 0.523256
vn 0.420894 0.606757 0.674205
vn 0.410029 0.583990 0.700543
vn 0.000000 0.682048 0.731154
vn 0.000000 0.682048 0.731154
vn -0.468321 0.711866 0.523256
vn -0.468321 0.711866 0.523256
vn -0.410029 0.583990 0.700543
vn -0.420894 0.606757 0.674205
vn -0.775987 0.252091 0.578038
vn -0.852713 0.105902 0.511506
vn 0.768266 0.135506 0.625465
vn 0.719893 0.233870 0.653452
vn 0.380272 0.523439 0.762345
vn 0.380272 0.523439 0.762345
vn 0.000000 0.610053 0.792285
vn 0.000000 0.610053 0.792285
vn -0.380272 0.523439 0.762345
vn -0.380272 0.523439 0.762345
vn -0.719893 0.233870 0.653452
vn -0.768266 0.135506 0.625465
vn 0.942746 0.273637 0.190472
vn 0.942746 0.273637 0.190472
vn 0.000000 0.000000 1.000000
vn 0.000000 0.000000 1.000000
vn -0.994568 -0.091101 -0.048801
vn -0.994568 -0.091101 -0.048801
vn 0.887749 0.000000 0.460264
vn 0.887749 0.000000 0.460264
vn 0.887749 0.000000 0.460264
vn 0.887749 0.000000 0.460264
vn 0.951627 0.000000 0.306903
vn 0.884942 0.000000 0.465574
vn 0.818043 0.000000 0.575047
vn -0.818043 0.000000 0.575047
vn -0.884942 0.000000 0.465574
vn -0.951627 0.000000 0.306903
vn -0.887749 0.000000 0.460264
vn -0.887749 0.000000 0.460264
vn -0.887749 0.000000 0.460264
vn -0.887749 0.000000 0.460264
vn 0.994568 -0.091101 -0.048801
vn 0.994568 -0.091101 -0.048801
vn 0.000000 0.000000 1.000000
vn 0.000000 0.000000 1.000000
vn -0.942746 0.273637 0.190472
vn -0.942746 0.273637 0.190472
vn 0.020723 -0.006287 0.999756
vn 0.020723 -0.006287 0.999756
vn 0.020723 -0.006287 0.999756
vn 0.020723 -0.006287 0.999756
vn 0.974638 0.176250 0.137185
vn 0.974638 0.176250 0.137185
vn 0.974638 0.176250 0.137185
vn 0.974638 0.176250 0.137185
vn 0.064427 0.166880 -0.983855
vn 0.064427 0.166880 -0.983855
vn 0.064427 0.166880 -0.983855
vn 0.064427 0.166880 -0.983855
vn -0.969877 0.213789 0.116676
vn -0.969877 0.213789 0.116676
vn -0.969877 0.213789 0.116676
vn -0.969877 0.213789 0.116676
vn -0.020723 -0.006287 0.999756
vn -0.020723 -0.006287 0.999756
vn -0.020723 -0.006287 0.999756
vn -0.020723 -0.006287 0.999756
vn 0.969877 0.213789 0.116676
vn 0.969877 0.213789 0.116676
vn 0.969877 0.213789 0.116676
vn 0.969877 0.213789 0.116676
vn -0.064427 0.166880 -0.983855
vn -0.064427 0.166880 -0.983855
vn -0.064427 0.166880 -0.983855
vn -0.064427 0.166880 -0.983855
vn -0.974638 0.176250 0.137185
vn -0.974638 0.176250 0.137185
vn -0.974638 0.176250 0.137185
vn -0.974638 0.176250 0.137185
vn 0.000000 0.952329 0.304950
vn 0.000000 0.952329 0.304950
vn 0.000000 0.952329 0.304950
vn 0.000000 0.952329 0.304950
vn 0.000000 0.000000 1.000000
vn 0.000000 0.000000 1.000000
vn 0.000000 0.000000 1.000000
vn 0.000000 0.000000 1.000000
vn 0.000000 -0.999481 -0.031343
vn 0.000000 -0.999481 -0.031343
vn 0.000000 -0.999481 -0.031343
vn 0.000000 -0.999481 -0.031343
vn 0.000000 0.000000 -1.000000
vn 0.000000 0.000000 -1.000000
vn 0.000000 0.000000 -1.000000
vn 0.000000 0.000000 -1.000000
vn 0.000000 0.952329 0.304950
vn 0.000000 0.952329 0.304950
vn 0.000000 0.952329 0.304950
vn 0.000000 0.952329 0.304950
vn 0.000000 0.000000 -1.000000
vn 0.000000 0.000000 -1.000000
vn 0.000000 0.000000 -1.000000
vn 0.000000 0.000000 -1.000000
vn 0.000000 -0.999481 -0.031343
vn 0.000000 -0.999481 -0.031343
vn 0.000000 -0.999481 -0.031343
vn 0.000000 -0.999481 -0.031343
vn 0.000000 0.000000 1.000000
vn 0.000000 0.000000 1.000000
vn 0.000000 0.000000 1.000000
vn 0.000000 0.000000 1.000000
# 116 uv coords
vt 0.223664 0.332802
vt 0.309925 0.332992
vt 0.197965 0.231414
vt 0.323514 0.233573
vt 0.607286 0.160855
vt 0.636923 0.034557
vt 0.421978 0.169452
vt 0.419666 0.044655
vt 0.501109 0.490065
vt 0.470044 0.364120
vt 0.687410 0.371761
vt 0.686493 0.496583
vt 0.422753 0.186125
vt 0.407296 0.177412
vt 0.722945 0.105425
vt 0.631746 -0.076788
vt 0.609595 0.210764
vt 0.645853 0.192615
vt 0.321674 0.097763
vt 0.414483 -0.066680
vt 0.381501 0.148528
vt 0.424146 0.254085
vt 0.398954 0.445724
vt 0.446365 0.377419
vt 0.136960 0.385415
vt 0.232286 0.434712
vt 0.230547 0.154192
vt 0.121368 0.263049
vt 0.305341 0.042810
vt 0.199892 0.107694
vt 0.230309 0.007623
vt 0.019515 0.212295
vt 0.113719 0.103847
vt -0.024650 0.141837
vt 0.003318 0.019678
vt 0.104799 0.003901
vt 0.050859 -0.083767
vt 0.201382 -0.071036
vt 0.284032 0.164311
vt 0.186517 0.209086
vt 0.691322 0.260361
vt 0.785990 0.423788
vt 0.462920 0.522263
vt 0.499350 0.539995
vt 0.473959 0.252734
vt 0.384830 0.435965
vt 0.701256 0.504382
vt 0.685905 0.513268
vt 1.641537 0.696197
vt 1.531597 0.619309
vt 1.424583 0.571077
vt 1.849429 0.720903
vt 1.779687 0.804753
vt 1.309667 0.559787
vt 1.685277 0.858120
vt 1.195324 0.586319
vt 1.602113 0.930221
vt 1.072543 0.640389
vt 0.915935 0.720037
vt 0.863812 0.624235
vt 0.998178 0.790729
vt 1.065750 0.877613
vt 1.743580 0.493950
vt 1.621968 0.387523
vt 1.672724 0.270574
vt 1.811728 0.399144
vt 1.474486 0.327665
vt 1.500151 0.188427
vt 1.725395 0.106026
vt 1.882173 0.265648
vt 1.960445 0.597197
vt 1.869831 0.668566
vt 1.308011 0.311336
vt 1.309886 0.169766
vt 1.530815 0.007176
vt 2.065203 0.512948
vt 1.151709 0.341402
vt 1.124641 0.216822
vt 1.315020 -0.013988
vt 1.011738 0.422175
vt 0.963308 0.315937
vt 1.104942 0.045177
vt 0.853971 0.568939
vt 0.778947 0.481326
vt 0.920140 0.171299
vt 0.692552 0.378330
vt 1.408688 0.708740
vt 1.453612 0.753404
vt 1.245773 0.733003
vt 1.298522 0.697920
vt 1.481323 0.790626
vt 1.481209 0.790874
vt 1.406243 0.725877
vt 1.353773 0.708559
vt 1.418840 0.609830
vt 1.411546 0.607758
vt 1.511542 0.653280
vt 1.507030 0.649507
vt 1.213557 0.620710
vt 1.208399 0.623539
vt 1.578441 0.732225
vt 1.575564 0.725859
vt 1.211358 0.764144
vt 1.211429 0.764405
vt 1.127437 0.687988
vt 1.131499 0.682301
vt 1.297401 0.715126
vt 1.352422 0.708410
vt 1.315308 0.598271
vt 1.307775 0.598920
vt 1.706913 0.599116
vt 1.600289 0.511135
vt 1.446947 0.452296
vt 1.310809 0.438936
vt 1.148957 0.466865
vt 1.027274 0.532457
# 58 polygons
usemtl initialShadingGroup
s 1
g pPipe1
f 2/90/1 1/104/2 7/106/3 8/100/4
s off
f 3/108/5 2/89/6 8/99/7 9/110/8
f 4/93/9 3/107/10 9/109/11 10/96/12
f 5/88/13 4/94/14 10/95/15 11/98/16
s 2
f 6/92/17 5/87/18 11/97/19 12/102/20
s 3
f 8/100/21 7/106/22 13/58/23 14/56/24
f 9/110/25 8/99/21 14/56/24 15/54/26
f 10/96/27 9/109/25 15/54/26 16/51/28
f 11/98/29 10/95/27 16/51/28 17/50/30
f 12/102/31 11/97/29 17/50/30 18/49/32
s 4
f 14/56/33 13/58/34 19/116/35 20/115/36
s off
f 15/54/37 14/56/38 20/115/39 21/114/40
s 5
f 16/51/41 15/54/42 21/114/43 22/113/44
s off
f 17/50/45 16/51/46 22/113/47 23/112/48
s 6
f 18/49/49 17/50/50 23/112/51 24/111/52
s 4
f 20/115/36 19/116/35 25/80/53 26/77/54
s off
f 58/30/55 57/33/56 59/36/57 60/31/58
s 5
f 22/113/44 21/114/43 27/73/59 28/67/60
s off
f 62/2/61 61/1/62 63/3/63 64/4/64
s 6
f 24/111/52 23/112/51 29/64/65 30/63/66
s 4
f 26/77/54 25/80/53 31/81/67 32/78/68
s 7
f 27/73/69 26/77/70 32/78/71 33/74/72
s 5
f 28/67/60 27/73/59 33/74/73 34/68/74
s 8
f 29/64/75 28/67/76 34/68/77 35/65/78
s 6
f 30/63/66 29/64/65 35/65/79 36/66/80
s 4
f 32/78/68 31/81/67 37/85/81 38/82/82
s 7
f 33/74/72 32/78/71 38/82/83 39/79/84
s 5
f 34/68/74 33/74/73 39/79/85 40/75/86
s 8
f 35/65/78 34/68/77 40/75/87 41/69/88
s 6
f 36/66/80 35/65/79 41/69/89 42/70/90
s 4
f 19/116/35 13/58/34 45/59/91 44/60/92
s 3
f 13/58/23 7/105/22 46/61/93 45/59/94
s 1
f 7/105/3 1/103/2 43/62/95 46/61/96
s off
f 66/6/97 65/5/98 67/7/99 68/8/100
s 4
f 31/81/67 25/80/53 47/83/101 48/84/102
f 37/85/81 31/81/67 48/84/102 49/86/103
s 6
f 36/66/80 42/70/90 51/76/104 50/71/105
f 30/63/66 36/66/80 50/71/105 52/72/106
s off
f 69/9/107 70/10/108 71/11/109 72/12/110
s 2
f 6/91/17 12/101/20 55/55/111 53/57/112
s 3
f 12/101/31 18/49/32 56/53/113 55/55/114
s 6
f 18/49/49 24/111/52 54/52/115 56/53/116
s off
f 21/40/117 20/32/118 57/33/119 58/30/120
f 20/34/121 26/35/122 59/36/123 57/33/124
f 26/37/125 27/38/126 60/31/127 59/36/128
f 27/29/129 21/39/130 58/30/131 60/31/132
f 23/23/133 22/26/134 61/1/135 62/2/136
f 22/25/137 28/28/138 63/3/139 61/1/140
f 28/27/141 29/21/142 64/4/143 63/3/144
f 29/22/145 23/24/146 62/2/147 64/4/148
f 25/15/149 19/18/150 65/5/151 66/6/152
f 19/17/153 44/13/154 67/7/155 65/5/156
f 44/14/157 47/19/158 68/8/159 67/7/160
f 47/20/161 25/16/162 66/6/163 68/8/164
f 24/43/165 30/46/166 70/10/167 69/9/168
f 30/45/169 52/41/170 71/11/171 70/10/172
f 52/42/173 54/47/174 72/12/175 71/11/176
f 54/48/177 24/44/178 69/9/179 72/12/180
# h3dt: 72 116 180 58
