# This file uses centimeters as units for non-parametric coordinates.

mtllib Rock2.mtl
g default
v 0.087622 -0.589136 -0.269672
v -0.229397 -0.613202 -0.166667
v -0.221103 -0.587255 0.166667
v 0.087622 -0.621152 0.269672
v 0.300844 -0.648288 -0.043166
v 0.175244 -0.610904 -0.572039
v -0.458794 -0.530771 -0.333333
v -0.386563 -0.463002 0.324086
v 0.175244 -0.583521 0.539345
v 0.589664 -0.339112 -0.051048
v 0.262866 -0.377338 -0.551741
v -0.485661 -0.326735 -0.387810
v -0.492379 -0.329773 0.500000
v 0.222705 -0.241827 0.854972
v 0.795857 -0.244548 0.074351
v 0.036064 -0.150196 -0.466923
v -0.458794 -0.103165 -0.333333
v -0.360235 -0.044881 0.483875
v 0.299272 -0.019012 0.681458
v 0.567101 -0.087622 0.000000
v 0.299067 0.100413 -0.235667
v -0.253221 0.079969 -0.379880
v -0.228092 0.087622 0.166667
v 0.087622 0.087622 0.269672
v 0.283550 0.087622 0.000000
v -0.099106 -0.698944 -0.073874
v 0.000000 0.262866 0.000000
vt 0.704670 0.551406
vt 0.821363 0.538656
vt 0.850635 0.426821
vt 0.757236 0.361398
vt 0.063862 0.651020
vt 0.577793 0.620339
vt 0.260085 0.856484
vt 0.931918 0.389736
vt 0.760241 0.262286
vt 0.526808 0.377677
vt 0.172402 0.352035
vt 0.956197 0.643156
vt 0.998008 0.337035
vt 0.255263 0.844683
vt 0.390200 0.539230
vt 0.092004 0.575921
vt 0.001992 0.291694
vt 0.405986 0.550367
vt 0.230400 0.336200
vt 0.463866 0.982748
vt 0.328217 0.729612
vt 0.133220 0.469119
vt 0.081510 0.299335
vt 0.201832 0.041492
vt 0.302085 0.265203
vt 0.503674 0.892071
vt 0.420495 0.661862
vt 0.568523 0.647780
vt 0.167460 0.342719
vt 0.785153 0.778160
vt 0.698997 0.853588
vt 0.590226 0.816445
vt 0.534903 0.756522
vt 0.781519 0.492459
vt 0.676778 0.740818
vt 0.887537 0.616603
vt 0.098940 0.754417
vt 0.001992 0.917951
vt 0.500120 0.582459
vt 0.305826 0.509755
vt 0.025835 0.835008
vt 0.654689 0.448655
vt 0.113338 0.630597
vt 0.150896 0.721795
vt 0.828426 0.115953
vt 0.266529 0.929606
vt 0.757275 0.591558
vt 0.646638 0.521495
vt 0.449857 0.451208
vt 0.231037 0.165080
vt 0.100865 0.001962
vt 0.006023 0.325475
vt 0.470540 0.075665
vt 0.525539 0.176590
vt 0.403555 0.002728
vt 0.465636 0.274682
vt 0.540000 0.361759
vt 0.201243 0.268396
vn -0.054053 -0.922615 -0.381916
vn -0.054053 -0.922615 -0.381916
vn -0.054053 -0.922615 -0.381916
vn -0.549863 -0.831566 0.078412
vn -0.549863 -0.831566 0.078412
vn -0.549863 -0.831566 0.078412
vn -0.169582 -0.967019 0.190040
vn -0.169582 -0.967019 0.190040
vn -0.169582 -0.967020 0.190040
vn 0.474262 -0.879826 -0.031325
vn 0.474262 -0.879826 -0.031325
vn 0.474262 -0.879826 -0.031325
vn -0.261195 -0.965266 -0.006199
vn -0.261196 -0.965266 -0.006199
vn -0.261196 -0.965266 -0.006199
vn -0.322719 0.201440 -0.924811
vn -0.322719 0.201440 -0.924811
vn -0.322719 0.201440 -0.924811
vn -0.922240 -0.382667 0.055130
vn -0.922240 -0.382667 0.055130
vn -0.922240 -0.382667 0.055130
vn -0.922240 -0.382667 0.055130
vn -0.304974 -0.702735 0.642771
vn -0.304974 -0.702735 0.642771
vn -0.304974 -0.702735 0.642771
vn -0.304974 -0.702735 0.642772
vn 0.805388 -0.458679 0.375452
vn 0.805388 -0.458679 0.375452
vn 0.805388 -0.458679 0.375452
vn 0.817202 -0.261955 -0.513382
vn 0.817202 -0.261955 -0.513382
vn 0.817202 -0.261955 -0.513382
vn -0.213006 0.201012 -0.956150
vn -0.213006 0.201012 -0.956150
vn -0.213006 0.201012 -0.956150
vn -0.213006 0.201012 -0.956150
vn -0.954477 0.295336 0.041843
vn -0.954477 0.295336 0.041843
vn -0.954477 0.295336 0.041843
vn -0.954477 0.295336 0.041843
vn -0.364473 0.453602 0.813268
vn -0.364473 0.453602 0.813268
vn -0.364473 0.453602 0.813268
vn -0.364473 0.453602 0.813268
vn 0.734050 0.552198 0.395282
vn 0.734050 0.552198 0.395282
vn 0.734050 0.552198 0.395282
vn 0.734050 0.552198 0.395282
vn 0.506099 0.616735 -0.602911
vn 0.506099 0.616735 -0.602911
vn 0.506099 0.616735 -0.602911
vn 0.506099 0.616735 -0.602911
vn -0.256610 0.042636 -0.965574
vn -0.256610 0.042636 -0.965574
vn -0.256610 0.042636 -0.965574
vn -0.661616 0.749380 0.026347
vn -0.661616 0.749380 0.026347
vn -0.661616 0.749380 0.026347
vn -0.123988 0.938767 0.321472
vn -0.123988 0.938767 0.321472
vn -0.123988 0.938767 0.321472
vn -0.123988 0.938767 0.321472
vn 0.405021 0.904696 0.132222
vn 0.405021 0.904696 0.132222
vn 0.405021 0.904696 0.132222
vn 0.405021 0.904696 0.132222
vn 0.660317 0.000021 -0.750987
vn 0.660317 0.000021 -0.750987
vn 0.660317 0.000021 -0.750987
vn -0.124754 -0.809882 -0.573173
vn -0.124754 -0.809882 -0.573173
vn -0.124754 -0.809882 -0.573173
vn -0.585941 -0.806652 0.077371
vn -0.585941 -0.806652 0.077371
vn -0.585941 -0.806652 0.077371
vn -0.209008 -0.923158 0.322639
vn -0.209007 -0.923157 0.322639
vn -0.209007 -0.923157 0.322639
vn 0.111812 -0.980557 0.161262
vn 0.111812 -0.980557 0.161262
vn 0.111812 -0.980557 0.161262
vn 0.144774 -0.915501 -0.375364
vn 0.144774 -0.915501 -0.375364
vn 0.144774 -0.915501 -0.375364
vn 0.093566 0.871249 -0.481841
vn 0.093566 0.871249 -0.481841
vn 0.093566 0.871249 -0.481841
vn -0.601569 0.798651 0.016475
vn -0.601569 0.798651 0.016475
vn -0.601569 0.798651 0.016475
vn -0.188399 0.794396 0.577444
vn -0.188399 0.794396 0.577444
vn -0.188399 0.794396 0.577444
vn 0.491124 0.794654 0.356822
vn 0.491124 0.794654 0.356822
vn 0.491124 0.794654 0.356822
vn 0.524024 0.847888 0.080524
vn 0.524024 0.847889 0.080524
vn 0.524024 0.847889 0.080524
vn 0.192077 0.549035 -0.813429
vn 0.192077 0.549035 -0.813429
vn 0.192077 0.549035 -0.813429
vn -0.682160 0.730897 0.021130
vn -0.682160 0.730897 0.021130
vn -0.682160 0.730897 0.021130
vn 0.643384 -0.588544 0.489565
vn 0.643384 -0.588544 0.489565
vn 0.643384 -0.588544 0.489565
vn 0.524024 0.847889 0.080524
vn 0.524024 0.847888 0.080524
vn 0.524024 0.847889 0.080524
vn -0.223399 -0.278791 -0.934007
vn -0.223399 -0.278791 -0.934007
vn -0.223399 -0.278791 -0.934007
vn 0.710732 -0.669446 -0.216109
vn 0.710732 -0.669446 -0.216109
vn 0.710732 -0.669446 -0.216109
vn -0.323548 -0.877943 0.352893
vn -0.323548 -0.877943 0.352893
vn -0.323548 -0.877943 0.352893
vn 0.293655 -0.930521 0.218853
vn 0.293655 -0.930521 0.218853
vn 0.293655 -0.930521 0.218853
vn 0.539693 -0.789611 -0.291970
vn 0.539693 -0.789611 -0.291970
vn 0.539693 -0.789611 -0.291970
vn -0.422642 -0.895612 0.138757
vn -0.422642 -0.895612 0.138757
vn -0.422642 -0.895612 0.138757
vn -0.110668 -0.993075 0.039423
vn -0.110668 -0.993075 0.039423
vn -0.110668 -0.993075 0.039423
s off
g pPyramid1
usemtl initialShadingGroup
f 1/1/1 2/2/2 7/36/3
f 2/2/4 3/3/5 8/8/6
f 3/3/7 4/4/8 9/9/9
f 4/43/10 10/40/11 9/44/12
f 5/5/13 1/37/14 6/41/15
f 6/41/16 7/7/17 11/38/18
f 7/36/19 8/8/20 13/13/21 12/12/22
f 8/8/23 9/9/24 14/45/25 13/13/26
f 9/44/27 10/40/28 14/14/29
f 10/10/30 6/6/31 11/39/32
f 11/16/33 12/52/34 17/23/35 16/22/36
f 12/17/37 13/51/38 18/24/39 17/23/40
f 13/18/41 14/19/42 19/25/43 18/49/44
f 14/58/45 15/55/46 20/53/47 19/25/48
f 15/20/49 11/21/50 16/27/51 20/26/52
f 16/22/53 17/23/54 22/29/55
f 17/23/56 18/24/57 22/29/58
f 18/49/59 19/25/60 24/56/61 23/57/62
f 19/25/63 20/53/64 25/54/65 24/56/66
f 20/26/67 16/27/68 21/33/69
f 2/2/70 1/1/71 26/34/72
f 3/3/73 2/2/74 26/34/75
f 4/4/76 3/3/77 26/34/78
f 5/42/79 4/4/80 26/34/81
f 1/1/82 5/42/83 26/34/84
f 21/28/85 22/47/86 27/35/87
f 22/47/88 23/30/89 27/35/90
f 23/30/91 24/31/92 27/35/93
f 24/31/94 25/32/95 27/35/96
f 25/32/97 21/33/98 27/35/99
f 16/48/100 22/47/101 21/28/102
f 22/29/103 18/24/104 23/50/105
f 4/4/106 5/42/107 10/10/108
f 20/26/109 21/33/110 25/32/111
f 11/38/112 7/7/113 12/46/114
f 5/42/115 6/6/116 10/10/117
f 3/3/118 9/9/119 8/8/120
f 14/14/121 10/40/122 15/15/123
f 10/40/124 11/11/125 15/15/126
f 2/2/127 8/8/128 7/36/129
f 1/37/130 7/7/131 6/41/132
