# 3ds Max Wavefront OBJ Exporter v0.97b - (c)2007 guruware
# File Created: 21.01.2017 21:22:14

mtllib Floor.mtl

#
# object Plane001
#

v  -69.9992 26.9136 30.7708
v  -54.7184 26.9136 30.7708
v  -54.7184 52.5000 30.7708
v  -69.9992 52.5000 30.7708
v  -70.0000 26.9136 27.0048
v  -69.9992 26.9136 32.0048
v  -69.9992 52.5000 32.0048
v  -70.0000 52.5000 27.0048
v  -54.7192 -52.5000 27.0048
v  -54.7192 -52.5000 32.0048
v  -70.0000 -52.5000 32.0048
v  -70.0000 -52.5000 27.0048
v  70.0000 -46.3052 27.0048
v  70.0000 -46.3052 32.0048
v  70.0000 -52.5000 32.0048
v  70.0000 -52.5000 27.0048
v  37.4225 52.5000 27.0048
v  37.4225 52.5000 32.0048
v  70.0000 52.5000 32.0048
v  70.0000 52.5000 27.0048
v  37.4225 -52.5000 30.7708
v  37.4225 -46.3052 30.7708
v  0.0000 -46.3052 30.7708
v  0.0000 -52.5000 30.7708
v  37.4225 -52.5000 27.0048
v  37.4225 -52.5000 32.0048
v  0.0000 -52.5000 32.0048
v  0.0000 -52.5000 27.0048
v  -13.1681 52.5000 27.0048
v  -13.1681 52.5000 32.0048
v  0.0000 52.5000 32.0048
v  0.0000 52.5000 27.0048
v  70.0000 -52.5000 33.0484
v  70.0000 -46.3052 33.0484
v  37.4225 -46.3052 33.0484
v  37.4225 -52.5000 33.0484
v  -13.1681 -52.5000 33.0484
v  -13.1681 -46.3052 33.0484
v  -54.7184 -46.3052 33.0484
v  -54.7192 -52.5000 33.0484
v  -13.1681 -52.5000 27.0048
v  -13.1681 -52.5000 32.0048
v  -54.7184 52.5000 32.0048
v  -54.7192 52.5000 27.0048
v  -70.0000 -7.0682 33.0484
v  -54.7192 -7.0682 33.0484
v  -54.7184 26.9136 33.0484
v  -69.9992 26.9136 33.0484
v  -70.0000 -7.0682 27.0048
v  -70.0000 -7.0682 32.0048
v  70.0008 26.9136 32.0048
v  70.0000 26.9136 27.0048
v  37.4225 52.5000 33.0484
v  0.0000 52.5000 33.0484
v  0.0000 26.9136 33.0484
v  37.4233 26.9136 33.0484
v  37.4233 26.9136 32.0048
v  0.0000 52.5000 30.7708
v  -13.1681 52.5000 30.7708
v  -13.1681 26.9136 30.7708
v  0.0000 26.9136 30.7708
v  70.0008 -7.0682 32.0048
v  70.0000 -7.0682 27.0048
v  0.0000 26.9136 32.0048
v  0.0008 -7.0682 32.0048
v  37.4233 -7.0682 32.0048
v  70.0008 26.9136 30.7708
v  37.4233 26.9136 30.7708
v  37.4233 -7.0682 30.7708
v  70.0008 -7.0682 30.7708
v  -13.1681 26.9136 33.0484
v  -13.1673 -7.0682 33.0484
v  0.0008 -7.0682 33.0484
v  -69.9992 -27.4539 32.0048
v  -54.7184 -27.4539 32.0048
v  -54.7192 -7.0682 32.0048
v  -70.0000 -27.4539 27.0048
v  70.0000 -27.4539 27.0048
v  70.0000 -27.4539 32.0048
v  37.4225 -27.4539 32.0048
v  0.0008 -27.4539 32.0048
v  0.0000 -46.3052 32.0048
v  37.4225 -46.3052 32.0048
v  70.0000 -27.4539 30.7708
v  37.4225 -27.4539 30.7708
v  70.0000 -46.3052 30.7708
v  0.0008 -27.4539 33.0484
v  -13.1673 -27.4539 33.0484
v  0.0000 -46.3052 33.0484
v  -54.7184 -46.3052 32.0048
v  -69.9992 -46.3052 32.0048
v  -70.0000 -46.3052 27.0048
v  -69.9992 -46.3052 30.7708
v  -54.7184 -46.3052 30.7708
v  -54.7184 -27.4539 30.7708
v  -69.9992 -27.4539 30.7708
v  37.4233 -7.0682 33.0484
v  37.4225 -27.4539 33.0484
v  0.0008 -7.0682 30.7708
v  -13.1673 -7.0682 30.7708
v  -13.1673 -27.4539 30.7708
v  0.0008 -27.4539 30.7708
v  -13.1681 -46.3052 32.0048
v  -54.7184 52.5000 33.0484
v  -13.1681 52.5000 33.0484
v  -54.7184 26.9136 32.0048
v  -13.1673 -7.0682 32.0048
v  -13.1681 26.9136 32.0048
v  -13.1673 -27.4539 32.0048
v  -54.7184 -27.4539 33.0484
# 110 vertices

vn 0.0000 0.0000 1.0000
vn -1.0000 0.0000 0.0002
vn 0.0000 -1.0000 0.0000
vn 1.0000 0.0000 0.0000
vn 0.0000 1.0000 0.0000
vn -1.0000 0.0000 0.0001
vn 1.0000 0.0000 -0.0001
vn 1.0000 0.0000 -0.0002
vn -1.0000 -0.0000 0.0001
vn -1.0000 0.0001 0.0001
vn 1.0000 -0.0000 -0.0001
vn -1.0000 0.0000 0.0000
vn -1.0000 0.0001 0.0000
vn 1.0000 -0.0000 0.0000
vn -1.0000 -0.0000 0.0000
vn -0.0000 1.0000 0.0000
# 16 vertex normals

vt 0.7515 0.1274 0.0000
vt 0.7515 0.0300 0.0000
vt 0.9145 0.0300 0.0000
vt 0.9145 0.1274 0.0000
vt 0.2711 0.7149 0.0000
vt 0.2711 0.6995 0.0000
vt 0.3501 0.6995 0.0000
vt 0.3501 0.7149 0.0000
vt 0.4109 0.6841 0.0000
vt 0.4109 0.6687 0.0000
vt 0.4581 0.6687 0.0000
vt 0.4581 0.6841 0.0000
vt 0.3310 0.7457 0.0000
vt 0.3310 0.7303 0.0000
vt 0.3501 0.7303 0.0000
vt 0.3501 0.7457 0.0000
vt 0.3576 0.6534 0.0000
vt 0.3576 0.6379 0.0000
vt 0.4581 0.6379 0.0000
vt 0.4581 0.6534 0.0000
vt 0.7515 0.1958 0.0000
vt 0.7515 0.1564 0.0000
vt 0.9899 0.1564 0.0000
vt 0.9899 0.1958 0.0000
vt 0.1266 0.6841 0.0000
vt 0.1266 0.6687 0.0000
vt 0.2421 0.6687 0.0000
vt 0.2421 0.6841 0.0000
vt 0.2015 0.6534 0.0000
vt 0.2015 0.6379 0.0000
vt 0.2421 0.6379 0.0000
vt 0.2421 0.6534 0.0000
vt 0.0164 0.5504 0.0000
vt 0.0164 0.5187 0.0000
vt 0.1831 0.5187 0.0000
vt 0.1831 0.5504 0.0000
vt 0.0261 0.6841 0.0000
vt 0.0261 0.6687 0.0000
vt 0.2303 0.4757 0.0000
vt 0.2303 0.4440 0.0000
vt 0.4429 0.4440 0.0000
vt 0.4429 0.4757 0.0000
vt 0.2827 0.6841 0.0000
vt 0.2827 0.6687 0.0000
vt 0.0261 0.6534 0.0000
vt 0.0261 0.6379 0.0000
vt 0.0733 0.6379 0.0000
vt 0.0733 0.6534 0.0000
vt 0.2303 0.3169 0.0000
vt 0.2303 0.2387 0.0000
vt 0.4042 0.2387 0.0000
vt 0.4042 0.3169 0.0000
vt 0.1663 0.7149 0.0000
vt 0.1663 0.6995 0.0000
vt 0.0261 0.7457 0.0000
vt 0.0261 0.7303 0.0000
vt 0.1051 0.7303 0.0000
vt 0.1051 0.7457 0.0000
vt 0.0164 0.2387 0.0000
vt 0.2079 0.2387 0.0000
vt 0.2079 0.3697 0.0000
vt 0.0164 0.3697 0.0000
vt 0.7105 0.5177 0.0000
vt 0.8671 0.5177 0.0000
vt 0.8671 0.6408 0.0000
vt 0.7105 0.6408 0.0000
vt 0.6690 0.4084 0.0000
vt 0.6690 0.4922 0.0000
vt 0.5060 0.4922 0.0000
vt 0.5060 0.4084 0.0000
vt 0.2099 0.7303 0.0000
vt 0.2099 0.7457 0.0000
vt 0.4880 0.7038 0.0000
vt 0.6680 0.7038 0.0000
vt 0.6679 0.8673 0.0000
vt 0.4880 0.8673 0.0000
vt 0.7225 0.0300 0.0000
vt 0.7225 0.2375 0.0000
vt 0.5060 0.2375 0.0000
vt 0.5060 0.0300 0.0000
vt 0.4042 0.3467 0.0000
vt 0.4042 0.4141 0.0000
vt 0.2303 0.4141 0.0000
vt 0.2303 0.3467 0.0000
vt 0.8699 0.8906 0.0000
vt 0.8699 0.8171 0.0000
vt 0.9680 0.8171 0.0000
vt 0.9680 0.8906 0.0000
vt 0.1034 0.7149 0.0000
vt 0.1034 0.6995 0.0000
vt 0.2728 0.7457 0.0000
vt 0.2728 0.7303 0.0000
vt 0.4880 0.8899 0.0000
vt 0.6679 0.8899 0.0000
vt 0.6679 0.9806 0.0000
vt 0.4880 0.9806 0.0000
vt 0.5060 0.2665 0.0000
vt 0.7135 0.2665 0.0000
vt 0.7135 0.3866 0.0000
vt 0.5060 0.3866 0.0000
vt 0.3268 0.4980 0.0000
vt 0.3268 0.5654 0.0000
vt 0.2303 0.5654 0.0000
vt 0.2303 0.4980 0.0000
vt 0.9633 0.5475 0.0000
vt 0.8898 0.5475 0.0000
vt 0.8898 0.5177 0.0000
vt 0.9633 0.5177 0.0000
vt 0.0261 0.7149 0.0000
vt 0.0261 0.6995 0.0000
vt 0.0453 0.6995 0.0000
vt 0.0453 0.7149 0.0000
vt 0.7353 0.3639 0.0000
vt 0.7353 0.2665 0.0000
vt 0.8554 0.2665 0.0000
vt 0.8554 0.3639 0.0000
vt 0.0164 0.3920 0.0000
vt 0.2079 0.3920 0.0000
vt 0.2079 0.4963 0.0000
vt 0.0164 0.4963 0.0000
vt 0.6906 0.8171 0.0000
vt 0.8473 0.8171 0.0000
vt 0.8473 0.9152 0.0000
vt 0.6906 0.9152 0.0000
vt 0.8651 0.3929 0.0000
vt 0.8651 0.4767 0.0000
vt 0.7353 0.4767 0.0000
vt 0.7353 0.3929 0.0000
vt 0.6906 0.9676 0.0000
vt 0.6906 0.9378 0.0000
vt 0.7539 0.9378 0.0000
vt 0.7539 0.9676 0.0000
vt 0.2291 0.0854 0.0000
vt 0.2291 0.2164 0.0000
vt 0.0164 0.2164 0.0000
vt 0.0164 0.0854 0.0000
vt 0.6878 0.5177 0.0000
vt 0.6878 0.6812 0.0000
vt 0.4880 0.6812 0.0000
vt 0.4880 0.5177 0.0000
vt 0.8904 0.7038 0.0000
vt 0.8904 0.7945 0.0000
vt 0.6906 0.7945 0.0000
vt 0.6906 0.7038 0.0000
vt 0.4641 0.0854 0.0000
vt 0.4641 0.1897 0.0000
vt 0.2514 0.1897 0.0000
vt 0.2514 0.0854 0.0000
vt 0.4067 0.7610 0.0000
vt 0.4538 0.7610 0.0000
vt 0.4538 0.7648 0.0000
vt 0.4067 0.7648 0.0000
vt 0.3622 0.7303 0.0000
vt 0.4411 0.7303 0.0000
vt 0.4411 0.7341 0.0000
vt 0.3622 0.7341 0.0000
vt 0.4218 0.8109 0.0000
vt 0.4409 0.8109 0.0000
vt 0.4409 0.8147 0.0000
vt 0.4218 0.8147 0.0000
vt 0.2791 0.7578 0.0000
vt 0.3945 0.7578 0.0000
vt 0.3945 0.7616 0.0000
vt 0.2791 0.7616 0.0000
vt 0.1539 0.8932 0.0000
vt 0.1730 0.8932 0.0000
vt 0.1730 0.8970 0.0000
vt 0.1539 0.8970 0.0000
vt 0.0261 0.8109 0.0000
vt 0.1051 0.8109 0.0000
vt 0.1051 0.8147 0.0000
vt 0.0261 0.8147 0.0000
vt 0.0261 0.8964 0.0000
vt 0.0668 0.8964 0.0000
vt 0.0668 0.9002 0.0000
vt 0.0261 0.9002 0.0000
vt 0.3622 0.6995 0.0000
vt 0.4411 0.6995 0.0000
vt 0.4411 0.7033 0.0000
vt 0.3622 0.7033 0.0000
vt 0.0261 0.8421 0.0000
vt 0.1266 0.8421 0.0000
vt 0.1266 0.8460 0.0000
vt 0.0261 0.8460 0.0000
vt 0.1172 0.8077 0.0000
vt 0.2220 0.8077 0.0000
vt 0.2220 0.8115 0.0000
vt 0.1172 0.8115 0.0000
vt 0.2342 0.8077 0.0000
vt 0.3347 0.8077 0.0000
vt 0.3347 0.8115 0.0000
vt 0.2342 0.8115 0.0000
vt 0.0261 0.8581 0.0000
vt 0.1266 0.8581 0.0000
vt 0.1266 0.8619 0.0000
vt 0.0261 0.8619 0.0000
vt 0.2298 0.8581 0.0000
vt 0.2880 0.8581 0.0000
vt 0.2880 0.8619 0.0000
vt 0.2298 0.8619 0.0000
vt 0.0261 0.7610 0.0000
vt 0.1266 0.7610 0.0000
vt 0.1266 0.7648 0.0000
vt 0.0261 0.7648 0.0000
vt 0.2557 0.8421 0.0000
vt 0.3139 0.8421 0.0000
vt 0.3139 0.8460 0.0000
vt 0.2557 0.8460 0.0000
vt 0.3260 0.8421 0.0000
vt 0.3732 0.8421 0.0000
vt 0.3732 0.8460 0.0000
vt 0.3260 0.8460 0.0000
vt 0.0789 0.9123 0.0000
vt 0.1260 0.9123 0.0000
vt 0.1260 0.9161 0.0000
vt 0.0789 0.9161 0.0000
vt 0.1012 0.8772 0.0000
vt 0.1418 0.8772 0.0000
vt 0.1418 0.8810 0.0000
vt 0.1012 0.8810 0.0000
vt 0.3468 0.8109 0.0000
vt 0.4097 0.8109 0.0000
vt 0.4097 0.8147 0.0000
vt 0.3468 0.8147 0.0000
vt 0.0261 0.9155 0.0000
vt 0.0668 0.9155 0.0000
vt 0.0668 0.9193 0.0000
vt 0.0261 0.9193 0.0000
vt 0.0261 0.8772 0.0000
vt 0.0890 0.8772 0.0000
vt 0.0890 0.8810 0.0000
vt 0.0261 0.8810 0.0000
vt 0.3310 0.7270 0.0000
vt 0.3501 0.7270 0.0000
vt 0.0261 0.7578 0.0000
vt 0.1266 0.7578 0.0000
vt 0.4218 0.8077 0.0000
vt 0.4409 0.8077 0.0000
vt 0.0261 0.6655 0.0000
vt 0.1266 0.6655 0.0000
vt 0.2827 0.6655 0.0000
vt 0.4109 0.6655 0.0000
vt 0.4535 0.7802 0.0000
vt 0.4344 0.7802 0.0000
vt 0.4344 0.7770 0.0000
vt 0.4535 0.7770 0.0000
vt 0.1543 0.7955 0.0000
vt 0.0261 0.7955 0.0000
vt 0.0261 0.7923 0.0000
vt 0.1543 0.7923 0.0000
vt 0.3648 0.8300 0.0000
vt 0.3457 0.8300 0.0000
vt 0.3457 0.8268 0.0000
vt 0.3648 0.8268 0.0000
vt 0.1663 0.6963 0.0000
vt 0.2711 0.6963 0.0000
vt 0.4581 0.7955 0.0000
vt 0.4110 0.7955 0.0000
vt 0.4110 0.7923 0.0000
vt 0.4581 0.7923 0.0000
vt 0.3989 0.7955 0.0000
vt 0.2940 0.7955 0.0000
vt 0.2940 0.7923 0.0000
vt 0.3989 0.7923 0.0000
vt 0.4067 0.7578 0.0000
vt 0.4538 0.7578 0.0000
vt 0.2421 0.6347 0.0000
vt 0.3576 0.6347 0.0000
vt 0.3622 0.6963 0.0000
vt 0.4411 0.6963 0.0000
vt 0.2819 0.7955 0.0000
vt 0.1665 0.7955 0.0000
vt 0.1665 0.7923 0.0000
vt 0.2819 0.7923 0.0000
vt 0.2177 0.8613 0.0000
vt 0.1388 0.8613 0.0000
vt 0.1388 0.8581 0.0000
vt 0.2177 0.8581 0.0000
vt 0.0261 0.8932 0.0000
vt 0.0668 0.8932 0.0000
vt 0.2586 0.8300 0.0000
vt 0.1537 0.8300 0.0000
vt 0.1537 0.8268 0.0000
vt 0.2586 0.8268 0.0000
vt 0.1012 0.8740 0.0000
vt 0.1418 0.8740 0.0000
vt 0.2436 0.8454 0.0000
vt 0.1388 0.8454 0.0000
vt 0.1388 0.8421 0.0000
vt 0.2436 0.8421 0.0000
vt 0.0843 0.9347 0.0000
vt 0.0261 0.9347 0.0000
vt 0.0261 0.9315 0.0000
vt 0.0843 0.9315 0.0000
vt 0.0261 0.9123 0.0000
vt 0.0668 0.9123 0.0000
vt 0.2121 0.8772 0.0000
vt 0.1539 0.8772 0.0000
vt 0.1539 0.8740 0.0000
vt 0.2121 0.8740 0.0000
vt 0.3407 0.8613 0.0000
vt 0.3001 0.8613 0.0000
vt 0.3001 0.8581 0.0000
vt 0.3407 0.8581 0.0000
vt 0.4222 0.7802 0.0000
vt 0.3068 0.7802 0.0000
vt 0.3068 0.7770 0.0000
vt 0.4222 0.7770 0.0000
vt 0.0261 0.8740 0.0000
vt 0.0890 0.8740 0.0000
vt 0.1416 0.8300 0.0000
vt 0.0261 0.8300 0.0000
vt 0.0261 0.8268 0.0000
vt 0.1416 0.8268 0.0000
vt 0.3336 0.8300 0.0000
vt 0.2707 0.8300 0.0000
vt 0.2707 0.8268 0.0000
vt 0.3336 0.8268 0.0000
vt 0.3622 0.7270 0.0000
vt 0.4411 0.7270 0.0000
vt 0.2946 0.7802 0.0000
vt 0.1665 0.7802 0.0000
vt 0.1665 0.7770 0.0000
vt 0.2946 0.7770 0.0000
vt 0.0261 0.8077 0.0000
vt 0.1051 0.8077 0.0000
vt 0.0733 0.6347 0.0000
vt 0.2015 0.6347 0.0000
vt 0.1418 0.8964 0.0000
vt 0.0789 0.8964 0.0000
vt 0.0789 0.8932 0.0000
vt 0.1418 0.8932 0.0000
vt 0.2670 0.7610 0.0000
vt 0.1388 0.7610 0.0000
vt 0.1388 0.7578 0.0000
vt 0.2670 0.7578 0.0000
vt 0.3468 0.8077 0.0000
vt 0.4097 0.8077 0.0000
vt 0.1543 0.7802 0.0000
vt 0.0261 0.7802 0.0000
vt 0.0261 0.7770 0.0000
vt 0.1543 0.7770 0.0000
# 342 texture coords

g Plane001
usemtl 01___Default
s 1
f 1/1/1 2/2/1 3/3/1 4/4/1 
s off
f 5/5/2 6/6/2 7/7/2 8/8/2 
f 9/9/3 10/10/3 11/11/3 12/12/3 
f 13/13/4 14/14/4 15/15/4 16/16/4 
f 17/17/5 18/18/5 19/19/5 20/20/5 
s 1
f 21/21/1 22/22/1 23/23/1 24/24/1 
s off
f 25/25/3 26/26/3 27/27/3 28/28/3 
f 29/29/5 30/30/5 31/31/5 32/32/5 
f 32/32/5 31/31/5 18/18/5 17/17/5 
s 1
f 33/33/1 34/34/1 35/35/1 36/36/1 
s off
f 16/37/3 15/38/3 26/26/3 25/25/3 
s 1
f 37/39/1 38/40/1 39/41/1 40/42/1 
s off
f 41/43/3 42/44/3 10/10/3 9/9/3 
f 8/45/5 7/46/5 43/47/5 44/48/5 
s 1
f 45/49/1 46/50/1 47/51/1 48/52/1 
s off
f 49/53/6 50/54/6 6/6/6 5/5/6 
f 20/55/7 19/56/7 51/57/7 52/58/7 
s 1
f 53/59/1 54/60/1 55/61/1 56/62/1 
f 19/63/1 18/64/1 57/65/1 51/66/1 
f 58/67/1 59/68/1 60/69/1 61/70/1 
s off
f 52/58/8 51/57/8 62/71/8 63/72/8 
s 1
f 57/73/1 64/74/1 65/75/1 66/76/1 
f 67/77/1 68/78/1 69/79/1 70/80/1 
f 55/81/1 71/82/1 72/83/1 73/84/1 
f 74/85/1 75/86/1 76/87/1 50/88/1 
s off
f 77/89/9 74/90/9 50/54/9 49/53/9 
f 78/91/4 79/92/4 14/14/4 13/13/4 
s 1
f 80/93/1 81/94/1 82/95/1 83/96/1 
f 84/97/1 85/98/1 22/99/1 86/100/1 
f 87/101/1 88/102/1 38/103/1 89/104/1 
f 11/105/1 10/106/1 90/107/1 91/108/1 
s off
f 12/109/10 11/110/10 91/111/10 92/112/10 
s 1
f 93/113/1 94/114/1 95/115/1 96/116/1 
s off
f 92/112/2 91/111/2 74/90/2 77/89/2 
f 63/72/11 62/71/11 79/92/11 78/91/11 
s 1
f 97/117/1 73/118/1 87/119/1 98/120/1 
f 62/121/1 66/122/1 80/123/1 79/124/1 
f 99/125/1 100/126/1 101/127/1 102/128/1 
s off
f 44/48/5 43/47/5 30/30/5 29/29/5 
s 1
f 27/129/1 82/130/1 103/131/1 42/132/1 
s off
f 28/28/3 27/27/3 42/44/3 41/43/3 
s 1
f 104/133/1 47/134/1 71/135/1 105/136/1 
f 106/137/1 76/138/1 107/139/1 108/140/1 
f 75/141/1 90/142/1 103/143/1 109/144/1 
f 46/145/1 110/146/1 88/147/1 72/148/1 
s off
f 6/149/5 106/150/5 2/151/5 1/152/5 
f 106/153/12 43/154/12 3/155/12 2/156/12 
f 26/157/12 83/158/12 22/159/12 21/160/12 
f 83/161/3 82/162/3 23/163/3 22/164/3 
f 82/165/4 27/166/4 24/167/4 23/168/4 
f 30/169/4 108/170/4 60/171/4 59/172/4 
f 108/173/5 64/174/5 61/175/5 60/176/5 
f 64/177/12 31/178/12 58/179/12 61/180/12 
f 51/181/3 57/182/3 68/183/3 67/184/3 
f 57/185/4 66/186/4 69/187/4 68/188/4 
f 66/189/5 62/190/5 70/191/5 69/192/5 
f 79/193/3 80/194/3 85/195/3 84/196/3 
f 80/197/4 83/198/4 22/199/4 85/200/4 
f 83/201/5 14/202/5 86/203/5 22/204/5 
f 90/205/12 75/206/12 95/207/12 94/208/12 
f 75/209/3 74/210/3 96/211/3 95/212/3 
f 91/213/5 90/214/5 94/215/5 93/216/5 
f 65/217/3 107/218/3 100/219/3 99/220/3 
f 107/221/4 109/222/4 101/223/4 100/224/4 
f 109/225/5 81/226/5 102/227/5 101/228/5 
f 81/229/12 65/230/12 99/231/12 102/232/12 
f 15/15/4 14/14/4 34/233/4 33/234/4 
f 14/202/5 83/201/5 35/235/5 34/236/5 
f 83/158/12 26/157/12 36/237/12 35/238/12 
f 26/26/3 15/38/3 33/239/3 36/240/3 
f 10/10/3 42/44/3 37/241/3 40/242/3 
f 42/243/4 103/244/4 38/245/4 37/246/4 
f 103/247/5 90/248/5 39/249/5 38/250/5 
f 90/251/13 10/252/13 40/253/13 39/254/13 
f 6/6/12 50/54/12 45/255/12 48/256/12 
f 50/257/3 76/258/3 46/259/3 45/260/3 
f 76/261/14 106/262/14 47/263/14 46/264/14 
f 106/150/5 6/149/5 48/265/5 47/266/5 
f 18/18/5 31/31/5 54/267/5 53/268/5 
f 31/178/12 64/177/12 55/269/12 54/270/12 
f 64/271/3 57/272/3 56/273/3 55/274/3 
f 57/275/4 18/276/4 53/277/4 56/278/4 
f 64/174/5 108/173/5 71/279/5 55/280/5 
f 108/281/15 107/282/15 72/283/15 71/284/15 
f 107/218/3 65/217/3 73/285/3 72/286/3 
f 65/287/4 64/288/4 55/289/4 73/290/4 
f 82/291/14 81/292/14 87/293/14 89/294/14 
f 81/226/5 109/225/5 88/295/5 87/296/5 
f 109/297/12 103/298/12 38/299/12 88/300/12 
f 103/301/3 82/302/3 89/303/3 38/304/3 
f 66/305/16 65/306/16 73/307/16 97/308/16 
f 65/230/12 81/229/12 87/309/12 73/310/12 
f 81/311/3 80/312/3 98/313/3 87/314/3 
f 80/315/14 66/316/14 97/317/14 98/318/14 
f 43/154/12 106/153/12 47/319/12 104/320/12 
f 106/321/3 108/322/3 71/323/3 47/324/3 
f 108/170/4 30/169/4 105/325/4 71/326/4 
f 30/30/5 43/47/5 104/327/5 105/328/5 
f 76/329/15 75/330/15 110/331/15 46/332/15 
f 75/333/3 109/334/3 88/335/3 110/336/3 
f 109/222/4 107/221/4 72/337/4 88/338/4 
f 107/339/5 76/340/5 46/341/5 72/342/5 
# 102 polygons

