# This file uses centimeters as units for non-parametric coordinates.

mtllib barnacle.mtl
g default
v -0.194963 0.716995 0.194963
v -0.123836 0.716995 0.247672
v 0.000000 0.716995 0.283051
v 0.123836 0.716995 0.247672
v 0.194963 0.716995 0.194963
v -0.247672 0.716995 0.123836
v -0.151040 0.716995 0.151040
v 0.000000 0.716995 0.219570
v 0.151040 0.716995 0.151040
v 0.247672 0.716995 0.123836
v -0.283051 0.716995 0.000000
v -0.219570 0.716995 0.000000
v 0.219570 0.716995 0.000000
v 0.283051 0.716995 0.000000
v -0.247672 0.716995 -0.123836
v -0.151040 0.716995 -0.151040
v 0.000000 0.716995 -0.219570
v 0.151040 0.716995 -0.151040
v 0.247672 0.716995 -0.123836
v -0.194963 0.716995 -0.194963
v -0.123836 0.716995 -0.247672
v 0.000000 0.716995 -0.283051
v 0.123836 0.716995 -0.247672
v 0.194963 0.716995 -0.194963
v -0.294030 0.537746 -0.294030
v -0.186761 0.537746 -0.373522
v 0.000000 0.537746 -0.426879
v 0.186761 0.537746 -0.373522
v 0.294030 0.537746 -0.294030
v -0.344395 0.358498 -0.344395
v -0.218752 0.358498 -0.437503
v 0.000000 0.358498 -0.500000
v 0.218752 0.358498 -0.437503
v 0.344395 0.358498 -0.344395
v -0.294030 0.179249 -0.294030
v -0.186761 0.179249 -0.373522
v 0.000000 0.179249 -0.426879
v 0.186761 0.179249 -0.373522
v 0.294030 0.179249 -0.294030
v -0.194963 0.000000 -0.194963
v -0.123836 0.000000 -0.247672
v 0.000000 0.000000 -0.283051
v 0.123836 0.000000 -0.247672
v 0.194963 0.000000 -0.194963
v -0.247672 0.000000 -0.123836
v -0.141526 0.000000 -0.141526
v 0.000000 0.000000 -0.141526
v 0.141526 0.000000 -0.141526
v 0.247672 0.000000 -0.123836
v -0.283051 0.000000 0.000000
v -0.141526 0.000000 0.000000
v 0.000000 0.000000 0.000000
v 0.141526 0.000000 0.000000
v 0.283051 0.000000 0.000000
v -0.247672 0.000000 0.123836
v -0.141526 0.000000 0.141526
v 0.000000 0.000000 0.141526
v 0.141526 0.000000 0.141526
v 0.247672 0.000000 0.123836
v -0.194963 0.000000 0.194963
v -0.123836 0.000000 0.247672
v 0.000000 0.000000 0.283051
v 0.123836 0.000000 0.247672
v 0.194963 0.000000 0.194963
v -0.294030 0.179249 0.294030
v -0.186761 0.179249 0.373522
v 0.000000 0.179249 0.426879
v 0.186761 0.179249 0.373522
v 0.294030 0.179249 0.294030
v -0.344395 0.358498 0.344395
v -0.218752 0.358498 0.437503
v 0.000000 0.358498 0.500000
v 0.218752 0.358498 0.437503
v 0.344395 0.358498 0.344395
v -0.294030 0.537746 0.294030
v -0.186761 0.537746 0.373522
v 0.000000 0.537746 0.426879
v 0.186761 0.537746 0.373522
v 0.294030 0.537746 0.294030
v 0.373522 0.179249 0.186761
v 0.437503 0.358498 0.218752
v 0.373522 0.537746 0.186761
v 0.426879 0.179249 0.000000
v 0.500000 0.358498 0.000000
v 0.426879 0.537746 0.000000
v 0.373522 0.179249 -0.186761
v 0.437503 0.358498 -0.218752
v 0.373522 0.537746 -0.186761
v -0.373522 0.179249 0.186761
v -0.437503 0.358498 0.218752
v -0.373522 0.537746 0.186761
v -0.426879 0.179249 0.000000
v -0.500000 0.358498 0.000000
v -0.426879 0.537746 0.000000
v -0.373522 0.179249 -0.186761
v -0.437503 0.358498 -0.218752
v -0.373522 0.537746 -0.186761
v -0.292055 0.356962 0.292054
v 0.000000 0.356962 0.424565
v 0.000000 0.496084 0.000000
v -0.424565 0.356962 0.000000
v 0.292055 0.356962 0.292055
v 0.424565 0.356962 0.000000
v 0.000000 0.356962 -0.424565
v -0.292055 0.356962 -0.292054
v 0.292055 0.356962 -0.292055
vt 0.769717 0.521927
vt 0.799687 0.537229
vt 0.754078 0.543435
vt 0.737864 0.507158
vt 0.835543 0.569699
vt 0.810510 0.581014
vt 0.155439 0.564237
vt 0.195008 0.531368
vt 0.240480 0.537310
vt 0.180440 0.576980
vt 0.226585 0.515625
vt 0.260013 0.503594
vt 0.679669 0.516061
vt 0.685355 0.493354
vt 0.203267 0.753100
vt 0.267128 0.710005
vt 0.288695 0.810067
vt 0.189521 0.823784
vt 0.345317 0.719730
vt 0.386639 0.788283
vt 0.311558 0.491577
vt 0.321424 0.513668
vt 0.589680 0.506924
vt 0.631433 0.484640
vt 0.306508 0.908313
vt 0.226814 0.893667
vt 0.370812 0.861963
vt 0.367463 0.484405
vt 0.408779 0.510612
vt 0.555283 0.478111
vt 0.593490 0.480963
vt 0.496917 0.500366
vt 0.499635 0.476946
vt 0.442163 0.478667
vt 0.404986 0.483796
vt 0.565092 0.372032
vt 0.609252 0.375612
vt 0.500751 0.369064
vt 0.435424 0.371300
vt 0.390933 0.374310
vt 0.571251 0.276672
vt 0.618864 0.280962
vt 0.501555 0.274152
vt 0.431678 0.275217
vt 0.383669 0.277630
vt 0.574449 0.180394
vt 0.624124 0.183689
vt 0.502234 0.179872
vt 0.430499 0.181192
vt 0.380858 0.184516
vt 0.575107 0.071353
vt 0.625822 0.073040
vt 0.502174 0.073670
vt 0.429677 0.077877
vt 0.380514 0.082389
vt 0.953731 0.936515
vt 0.930840 0.953479
vt 0.936533 0.919317
vt 0.970695 0.913624
vt 0.890985 0.964866
vt 0.890985 0.919317
vt 0.851130 0.953479
vt 0.845436 0.919317
vt 0.828238 0.936515
vt 0.811275 0.913624
vt 0.936533 0.873769
vt 0.982081 0.873769
vt 0.890985 0.873769
vt 0.845436 0.873769
vt 0.799888 0.873769
vt 0.936533 0.828221
vt 0.970695 0.833914
vt 0.890985 0.828221
vt 0.845436 0.828221
vt 0.811275 0.833914
vt 0.930840 0.794059
vt 0.953731 0.811023
vt 0.890985 0.782673
vt 0.851130 0.794059
vt 0.828238 0.811023
vt 0.853820 0.109324
vt 0.894557 0.110381
vt 0.917498 0.227732
vt 0.866651 0.221364
vt 0.948284 0.103891
vt 0.993051 0.229383
vt 0.060610 0.094087
vt 0.112639 0.099198
vt 0.087513 0.217463
vt 0.014915 0.216355
vt 0.153153 0.096734
vt 0.137157 0.212994
vt 0.912657 0.337169
vt 0.860564 0.322620
vt 0.993176 0.360312
vt 0.088757 0.328003
vt 0.007248 0.344744
vt 0.141301 0.317348
vt 0.873913 0.440235
vt 0.829882 0.421574
vt 0.935722 0.476649
vt 0.123648 0.432437
vt 0.057930 0.465787
vt 0.169385 0.415559
vt 0.196658 0.093793
vt 0.187192 0.206956
vt 0.192088 0.306541
vt 0.214533 0.402313
vt 0.262788 0.089685
vt 0.259416 0.198324
vt 0.264363 0.293401
vt 0.280011 0.387392
vt 0.331916 0.084743
vt 0.331131 0.189036
vt 0.335492 0.283138
vt 0.346324 0.378633
vt 0.817061 0.213004
vt 0.811001 0.103606
vt 0.809866 0.310672
vt 0.784952 0.406460
vt 0.745544 0.201156
vt 0.744985 0.092681
vt 0.737747 0.296104
vt 0.719122 0.389611
vt 0.673624 0.189274
vt 0.675663 0.079817
vt 0.666817 0.285524
vt 0.653743 0.380126
vt 0.142667 0.704230
vt 0.257412 0.632983
vt 0.115303 0.833377
vt 0.386364 0.661050
vt 0.458607 0.776099
vt 0.316641 0.977796
vt 0.186966 0.948642
vt 0.430941 0.905849
vn -0.494780 0.714413 0.494780
vn -0.276342 0.740934 0.612088
vn 0.645232 -0.409085 -0.645232
vn -0.612088 0.740934 0.276342
vn -0.276342 0.740934 0.612088
vn 0.000000 0.734466 0.678646
vn 0.000000 -0.387379 -0.921921
vn 0.645232 -0.409085 -0.645232
vn 0.000000 0.734466 0.678646
vn 0.276342 0.740934 0.612088
vn -0.645232 -0.409085 -0.645232
vn 0.000000 -0.387379 -0.921921
vn 0.276342 0.740934 0.612088
vn 0.494780 0.714413 0.494780
vn 0.612088 0.740934 0.276342
vn -0.645232 -0.409085 -0.645232
vn -0.612088 0.740934 0.276342
vn 0.645232 -0.409085 -0.645232
vn 0.921921 -0.387379 0.000000
vn -0.678646 0.734466 -0.000000
vn -0.225717 0.947683 0.225717
vn 0.000000 0.972788 0.231696
vn 0.000000 1.000000 0.000000
vn -0.231697 0.972788 0.000000
vn 0.000000 0.972788 0.231696
vn 0.225717 0.947683 0.225717
vn 0.231696 0.972788 0.000000
vn 0.000000 1.000000 0.000000
vn -0.645232 -0.409085 -0.645232
vn 0.612088 0.740934 0.276342
vn 0.678646 0.734466 0.000000
vn -0.921921 -0.387379 0.000000
vn -0.678646 0.734466 -0.000000
vn 0.921921 -0.387379 0.000000
vn 0.645232 -0.409085 0.645232
vn -0.612088 0.740934 -0.276342
vn -0.231697 0.972788 0.000000
vn 0.000000 1.000000 0.000000
vn 0.000000 0.972788 -0.231696
vn -0.225717 0.947683 -0.225717
vn 0.000000 1.000000 0.000000
vn 0.231696 0.972788 0.000000
vn 0.225717 0.947683 -0.225717
vn 0.000000 0.972788 -0.231696
vn -0.921921 -0.387379 0.000000
vn 0.678646 0.734466 0.000000
vn 0.612088 0.740934 -0.276342
vn -0.645232 -0.409085 0.645232
vn -0.612088 0.740934 -0.276342
vn 0.645232 -0.409085 0.645232
vn -0.276342 0.740934 -0.612088
vn -0.494780 0.714413 -0.494780
vn 0.645232 -0.409085 0.645232
vn 0.000000 -0.387379 0.921921
vn 0.000000 0.734466 -0.678646
vn -0.276342 0.740934 -0.612088
vn 0.000000 -0.387379 0.921921
vn -0.645232 -0.409085 0.645232
vn 0.276342 0.740934 -0.612088
vn 0.000000 0.734466 -0.678646
vn -0.645232 -0.409085 0.645232
vn 0.612088 0.740934 -0.276342
vn 0.494780 0.714413 -0.494780
vn 0.276342 0.740934 -0.612088
vn -0.494780 0.714413 -0.494780
vn -0.276342 0.740934 -0.612088
vn -0.359638 0.487040 -0.795898
vn -0.617681 0.486765 -0.617681
vn -0.276342 0.740934 -0.612088
vn 0.000000 0.734466 -0.678646
vn 0.000000 0.492340 -0.870403
vn -0.359638 0.487040 -0.795898
vn 0.000000 0.734466 -0.678646
vn 0.276342 0.740934 -0.612088
vn 0.359638 0.487040 -0.795898
vn 0.000000 0.492340 -0.870403
vn 0.276342 0.740934 -0.612088
vn 0.494780 0.714413 -0.494780
vn 0.617681 0.486765 -0.617681
vn 0.359638 0.487040 -0.795898
vn -0.617681 0.486765 -0.617681
vn -0.359638 0.487040 -0.795898
vn -0.411905 0.000000 -0.911227
vn -0.707107 0.000000 -0.707107
vn -0.359638 0.487040 -0.795898
vn 0.000000 0.492340 -0.870403
vn 0.000000 0.000000 -1.000000
vn -0.411905 0.000000 -0.911227
vn 0.000000 0.492340 -0.870403
vn 0.359638 0.487040 -0.795898
vn 0.411905 0.000000 -0.911227
vn 0.000000 0.000000 -1.000000
vn 0.359638 0.487040 -0.795898
vn 0.617681 0.486765 -0.617681
vn 0.707107 0.000000 -0.707107
vn 0.411905 0.000000 -0.911227
vn -0.707107 0.000000 -0.707107
vn -0.411905 0.000000 -0.911227
vn -0.359638 -0.487040 -0.795898
vn -0.617681 -0.486765 -0.617681
vn -0.411905 0.000000 -0.911227
vn 0.000000 0.000000 -1.000000
vn 0.000000 -0.492340 -0.870403
vn -0.359638 -0.487040 -0.795898
vn 0.000000 0.000000 -1.000000
vn 0.411905 0.000000 -0.911227
vn 0.359638 -0.487040 -0.795898
vn 0.000000 -0.492340 -0.870403
vn 0.411905 0.000000 -0.911227
vn 0.707107 0.000000 -0.707107
vn 0.617681 -0.486765 -0.617681
vn 0.359638 -0.487040 -0.795898
vn -0.617681 -0.486765 -0.617681
vn -0.359638 -0.487040 -0.795898
vn -0.255941 -0.783018 -0.566901
vn -0.482130 -0.731506 -0.482130
vn -0.359638 -0.487040 -0.795898
vn 0.000000 -0.492340 -0.870403
vn 0.000000 -0.779583 -0.626299
vn -0.255941 -0.783018 -0.566901
vn 0.000000 -0.492340 -0.870403
vn 0.359638 -0.487040 -0.795898
vn 0.255941 -0.783018 -0.566901
vn 0.000000 -0.779583 -0.626299
vn 0.359638 -0.487040 -0.795898
vn 0.617681 -0.486765 -0.617681
vn 0.482130 -0.731506 -0.482130
vn 0.255941 -0.783018 -0.566901
vn -0.482130 -0.731506 -0.482130
vn -0.255941 -0.783018 -0.566901
vn 0.000000 -1.000000 0.000000
vn -0.566901 -0.783018 -0.255941
vn -0.255941 -0.783018 -0.566901
vn 0.000000 -0.779583 -0.626299
vn 0.000000 -1.000000 0.000000
vn 0.000000 -1.000000 0.000000
vn 0.000000 -0.779583 -0.626299
vn 0.255941 -0.783018 -0.566901
vn 0.000000 -1.000000 0.000000
vn 0.000000 -1.000000 0.000000
vn 0.255941 -0.783018 -0.566901
vn 0.482130 -0.731506 -0.482130
vn 0.566901 -0.783018 -0.255941
vn 0.000000 -1.000000 0.000000
vn -0.566901 -0.783018 -0.255941
vn 0.000000 -1.000000 0.000000
vn 0.000000 -1.000000 0.000000
vn -0.626299 -0.779583 0.000000
vn 0.000000 -1.000000 0.000000
vn 0.000000 -1.000000 0.000000
vn 0.000000 -1.000000 0.000000
vn 0.000000 -1.000000 0.000000
vn 0.000000 -1.000000 0.000000
vn 0.000000 -1.000000 0.000000
vn 0.000000 -1.000000 0.000000
vn 0.000000 -1.000000 0.000000
vn 0.000000 -1.000000 0.000000
vn 0.566901 -0.783018 -0.255941
vn 0.626299 -0.779583 0.000000
vn 0.000000 -1.000000 0.000000
vn -0.626299 -0.779583 0.000000
vn 0.000000 -1.000000 0.000000
vn 0.000000 -1.000000 0.000000
vn -0.566901 -0.783018 0.255941
vn 0.000000 -1.000000 0.000000
vn 0.000000 -1.000000 0.000000
vn 0.000000 -1.000000 0.000000
vn 0.000000 -1.000000 0.000000
vn 0.000000 -1.000000 0.000000
vn 0.000000 -1.000000 0.000000
vn 0.000000 -1.000000 0.000000
vn 0.000000 -1.000000 0.000000
vn 0.000000 -1.000000 0.000000
vn 0.626299 -0.779583 0.000000
vn 0.566901 -0.783018 0.255941
vn 0.000000 -1.000000 0.000000
vn -0.566901 -0.783018 0.255941
vn 0.000000 -1.000000 0.000000
vn -0.255941 -0.783018 0.566901
vn -0.482130 -0.731506 0.482130
vn 0.000000 -1.000000 0.000000
vn 0.000000 -1.000000 0.000000
vn 0.000000 -0.779583 0.626299
vn -0.255941 -0.783018 0.566901
vn 0.000000 -1.000000 0.000000
vn 0.000000 -1.000000 0.000000
vn 0.255941 -0.783018 0.566901
vn 0.000000 -0.779583 0.626299
vn 0.000000 -1.000000 0.000000
vn 0.566901 -0.783018 0.255941
vn 0.482130 -0.731506 0.482130
vn 0.255941 -0.783018 0.566901
vn -0.482130 -0.731506 0.482130
vn -0.255941 -0.783018 0.566901
vn -0.359638 -0.487040 0.795898
vn -0.617681 -0.486765 0.617681
vn -0.255941 -0.783018 0.566901
vn 0.000000 -0.779583 0.626299
vn 0.000000 -0.492340 0.870403
vn -0.359638 -0.487040 0.795898
vn 0.000000 -0.779583 0.626299
vn 0.255941 -0.783018 0.566901
vn 0.359638 -0.487040 0.795898
vn 0.000000 -0.492340 0.870403
vn 0.255941 -0.783018 0.566901
vn 0.482130 -0.731506 0.482130
vn 0.617681 -0.486765 0.617681
vn 0.359638 -0.487040 0.795898
vn -0.617681 -0.486765 0.617681
vn -0.359638 -0.487040 0.795898
vn -0.411905 0.000000 0.911227
vn -0.707107 0.000000 0.707107
vn -0.359638 -0.487040 0.795898
vn 0.000000 -0.492340 0.870403
vn 0.000000 0.000000 1.000000
vn -0.411905 0.000000 0.911227
vn 0.000000 -0.492340 0.870403
vn 0.359638 -0.487040 0.795898
vn 0.411905 0.000000 0.911227
vn 0.000000 0.000000 1.000000
vn 0.359638 -0.487040 0.795898
vn 0.617681 -0.486765 0.617681
vn 0.707107 -0.000000 0.707107
vn 0.411905 0.000000 0.911227
vn -0.707107 0.000000 0.707107
vn -0.411905 0.000000 0.911227
vn -0.359638 0.487040 0.795898
vn -0.617681 0.486765 0.617681
vn -0.411905 0.000000 0.911227
vn 0.000000 0.000000 1.000000
vn 0.000000 0.492340 0.870403
vn -0.359638 0.487040 0.795898
vn 0.000000 0.000000 1.000000
vn 0.411905 0.000000 0.911227
vn 0.359638 0.487040 0.795898
vn 0.000000 0.492340 0.870403
vn 0.411905 0.000000 0.911227
vn 0.707107 -0.000000 0.707107
vn 0.617681 0.486765 0.617681
vn 0.359638 0.487040 0.795898
vn -0.617681 0.486765 0.617681
vn -0.359638 0.487040 0.795898
vn -0.276342 0.740934 0.612088
vn -0.494780 0.714413 0.494780
vn -0.359638 0.487040 0.795898
vn 0.000000 0.492340 0.870403
vn 0.000000 0.734466 0.678646
vn -0.276342 0.740934 0.612088
vn 0.000000 0.492340 0.870403
vn 0.359638 0.487040 0.795898
vn 0.276342 0.740934 0.612088
vn 0.000000 0.734466 0.678646
vn 0.359638 0.487040 0.795898
vn 0.617681 0.486765 0.617681
vn 0.494780 0.714413 0.494780
vn 0.276342 0.740934 0.612088
vn 0.617681 -0.486765 0.617681
vn 0.482130 -0.731506 0.482130
vn 0.566901 -0.783018 0.255941
vn 0.795898 -0.487040 0.359638
vn 0.707107 -0.000000 0.707107
vn 0.617681 -0.486765 0.617681
vn 0.795898 -0.487040 0.359638
vn 0.911227 0.000000 0.411905
vn 0.617681 0.486765 0.617681
vn 0.707107 -0.000000 0.707107
vn 0.911227 0.000000 0.411905
vn 0.795898 0.487040 0.359638
vn 0.494780 0.714413 0.494780
vn 0.617681 0.486765 0.617681
vn 0.795898 0.487040 0.359638
vn 0.612088 0.740934 0.276342
vn 0.795898 -0.487040 0.359638
vn 0.566901 -0.783018 0.255941
vn 0.626299 -0.779583 0.000000
vn 0.870403 -0.492340 0.000000
vn 0.911227 0.000000 0.411905
vn 0.795898 -0.487040 0.359638
vn 0.870403 -0.492340 0.000000
vn 1.000000 0.000000 0.000000
vn 0.795898 0.487040 0.359638
vn 0.911227 0.000000 0.411905
vn 1.000000 0.000000 0.000000
vn 0.870403 0.492340 0.000000
vn 0.612088 0.740934 0.276342
vn 0.795898 0.487040 0.359638
vn 0.870403 0.492340 0.000000
vn 0.678646 0.734466 0.000000
vn 0.870403 -0.492340 0.000000
vn 0.626299 -0.779583 0.000000
vn 0.566901 -0.783018 -0.255941
vn 0.795898 -0.487040 -0.359638
vn 1.000000 0.000000 0.000000
vn 0.870403 -0.492340 0.000000
vn 0.795898 -0.487040 -0.359638
vn 0.911227 0.000000 -0.411905
vn 0.870403 0.492340 0.000000
vn 1.000000 0.000000 0.000000
vn 0.911227 0.000000 -0.411905
vn 0.795898 0.487040 -0.359638
vn 0.678646 0.734466 0.000000
vn 0.870403 0.492340 0.000000
vn 0.795898 0.487040 -0.359638
vn 0.612088 0.740934 -0.276342
vn 0.795898 -0.487040 -0.359638
vn 0.566901 -0.783018 -0.255941
vn 0.482130 -0.731506 -0.482130
vn 0.617681 -0.486765 -0.617681
vn 0.911227 0.000000 -0.411905
vn 0.795898 -0.487040 -0.359638
vn 0.617681 -0.486765 -0.617681
vn 0.707107 0.000000 -0.707107
vn 0.795898 0.487040 -0.359638
vn 0.911227 0.000000 -0.411905
vn 0.707107 0.000000 -0.707107
vn 0.617681 0.486765 -0.617681
vn 0.612088 0.740934 -0.276342
vn 0.795898 0.487040 -0.359638
vn 0.617681 0.486765 -0.617681
vn 0.494780 0.714413 -0.494780
vn -0.482130 -0.731506 0.482130
vn -0.617681 -0.486765 0.617681
vn -0.795898 -0.487040 0.359638
vn -0.566901 -0.783018 0.255941
vn -0.617681 -0.486765 0.617681
vn -0.707107 0.000000 0.707107
vn -0.911227 0.000000 0.411905
vn -0.795898 -0.487040 0.359638
vn -0.707107 0.000000 0.707107
vn -0.617681 0.486765 0.617681
vn -0.795898 0.487040 0.359638
vn -0.911227 0.000000 0.411905
vn -0.617681 0.486765 0.617681
vn -0.494780 0.714413 0.494780
vn -0.612088 0.740934 0.276342
vn -0.795898 0.487040 0.359638
vn -0.566901 -0.783018 0.255941
vn -0.795898 -0.487040 0.359638
vn -0.870403 -0.492340 0.000000
vn -0.626299 -0.779583 0.000000
vn -0.795898 -0.487040 0.359638
vn -0.911227 0.000000 0.411905
vn -1.000000 0.000000 0.000000
vn -0.870403 -0.492340 0.000000
vn -0.911227 0.000000 0.411905
vn -0.795898 0.487040 0.359638
vn -0.870403 0.492340 -0.000000
vn -1.000000 0.000000 0.000000
vn -0.795898 0.487040 0.359638
vn -0.612088 0.740934 0.276342
vn -0.678646 0.734466 -0.000000
vn -0.870403 0.492340 -0.000000
vn -0.626299 -0.779583 0.000000
vn -0.870403 -0.492340 0.000000
vn -0.795898 -0.487040 -0.359638
vn -0.566901 -0.783018 -0.255941
vn -0.870403 -0.492340 0.000000
vn -1.000000 0.000000 0.000000
vn -0.911227 0.000000 -0.411905
vn -0.795898 -0.487040 -0.359638
vn -1.000000 0.000000 0.000000
vn -0.870403 0.492340 -0.000000
vn -0.795898 0.487039 -0.359638
vn -0.911227 0.000000 -0.411905
vn -0.870403 0.492340 -0.000000
vn -0.678646 0.734466 -0.000000
vn -0.612088 0.740934 -0.276342
vn -0.795898 0.487039 -0.359638
vn -0.566901 -0.783018 -0.255941
vn -0.795898 -0.487040 -0.359638
vn -0.617681 -0.486765 -0.617681
vn -0.482130 -0.731506 -0.482130
vn -0.795898 -0.487040 -0.359638
vn -0.911227 0.000000 -0.411905
vn -0.707107 0.000000 -0.707107
vn -0.617681 -0.486765 -0.617681
vn -0.911227 0.000000 -0.411905
vn -0.795898 0.487039 -0.359638
vn -0.617681 0.486765 -0.617681
vn -0.707107 0.000000 -0.707107
vn -0.795898 0.487039 -0.359638
vn -0.612088 0.740934 -0.276342
vn -0.494780 0.714413 -0.494780
vn -0.617681 0.486765 -0.617681
vn 0.645232 -0.409085 -0.645232
vn 0.000000 -0.387379 -0.921921
vn 0.366803 -0.460306 -0.808439
vn 0.366803 -0.460306 -0.808439
vn 0.921921 -0.387379 0.000000
vn 0.645232 -0.409085 -0.645232
vn 0.808439 -0.460306 -0.366803
vn 0.808439 -0.460306 -0.366803
vn 0.000000 -0.387379 -0.921921
vn -0.645232 -0.409085 -0.645232
vn -0.366803 -0.460306 -0.808439
vn -0.366803 -0.460306 -0.808439
vn -0.645232 -0.409085 -0.645232
vn -0.921921 -0.387379 0.000000
vn -0.808439 -0.460306 -0.366803
vn -0.808439 -0.460306 -0.366803
vn 0.000000 -0.387379 0.921921
vn 0.645232 -0.409085 0.645232
vn 0.366803 -0.460306 0.808439
vn 0.366803 -0.460306 0.808439
vn 0.645232 -0.409085 0.645232
vn 0.921921 -0.387379 0.000000
vn 0.808439 -0.460306 0.366803
vn 0.808439 -0.460306 0.366803
vn -0.921921 -0.387379 0.000000
vn -0.645232 -0.409085 0.645232
vn -0.808439 -0.460306 0.366803
vn -0.808439 -0.460306 0.366803
vn -0.645232 -0.409085 0.645232
vn 0.000000 -0.387379 0.921921
vn -0.366803 -0.460306 0.808439
vn -0.366803 -0.460306 0.808439
s off
g barnacle:pCube1
usemtl barnacle:initialShadingGroup
f 1/1/1 2/2/2 7/3/3 6/4/4
f 2/2/5 3/5/6 8/6/7 7/3/8
f 3/7/9 4/8/10 9/9/11 8/10/12
f 4/8/13 5/11/14 10/12/15 9/9/16
f 6/4/17 7/3/18 12/13/19 11/14/20
f 98/15/21 99/16/22 100/17/23 101/18/24
f 99/16/25 102/19/26 103/20/27 100/17/28
f 9/9/29 10/12/30 14/21/31 13/22/32
f 11/14/33 12/13/34 16/23/35 15/24/36
f 101/18/37 100/17/38 104/25/39 105/26/40
f 100/17/41 103/20/42 106/27/43 104/25/44
f 13/22/45 14/21/46 19/28/47 18/29/48
f 15/24/49 16/23/50 21/30/51 20/31/52
f 16/23/53 17/32/54 22/33/55 21/30/56
f 17/32/57 18/29/58 23/34/59 22/33/60
f 18/29/61 19/28/62 24/35/63 23/34/64
f 20/31/65 21/30/66 26/36/67 25/37/68
f 21/30/69 22/33/70 27/38/71 26/36/72
f 22/33/73 23/34/74 28/39/75 27/38/76
f 23/34/77 24/35/78 29/40/79 28/39/80
f 25/37/81 26/36/82 31/41/83 30/42/84
f 26/36/85 27/38/86 32/43/87 31/41/88
f 27/38/89 28/39/90 33/44/91 32/43/92
f 28/39/93 29/40/94 34/45/95 33/44/96
f 30/42/97 31/41/98 36/46/99 35/47/100
f 31/41/101 32/43/102 37/48/103 36/46/104
f 32/43/105 33/44/106 38/49/107 37/48/108
f 33/44/109 34/45/110 39/50/111 38/49/112
f 35/47/113 36/46/114 41/51/115 40/52/116
f 36/46/117 37/48/118 42/53/119 41/51/120
f 37/48/121 38/49/122 43/54/123 42/53/124
f 38/49/125 39/50/126 44/55/127 43/54/128
f 40/56/129 41/57/130 46/58/131 45/59/132
f 41/57/133 42/60/134 47/61/135 46/58/136
f 42/60/137 43/62/138 48/63/139 47/61/140
f 43/62/141 44/64/142 49/65/143 48/63/144
f 45/59/145 46/58/146 51/66/147 50/67/148
f 46/58/149 47/61/150 52/68/151 51/66/152
f 47/61/153 48/63/154 53/69/155 52/68/156
f 48/63/157 49/65/158 54/70/159 53/69/160
f 50/67/161 51/66/162 56/71/163 55/72/164
f 51/66/165 52/68/166 57/73/167 56/71/168
f 52/68/169 53/69/170 58/74/171 57/73/172
f 53/69/173 54/70/174 59/75/175 58/74/176
f 55/72/177 56/71/178 61/76/179 60/77/180
f 56/71/181 57/73/182 62/78/183 61/76/184
f 57/73/185 58/74/186 63/79/187 62/78/188
f 58/74/189 59/75/190 64/80/191 63/79/192
f 60/81/193 61/82/194 66/83/195 65/84/196
f 61/82/197 62/85/198 67/86/199 66/83/200
f 62/87/201 63/88/202 68/89/203 67/90/204
f 63/88/205 64/91/206 69/92/207 68/89/208
f 65/84/209 66/83/210 71/93/211 70/94/212
f 66/83/213 67/86/214 72/95/215 71/93/216
f 67/90/217 68/89/218 73/96/219 72/97/220
f 68/89/221 69/92/222 74/98/223 73/96/224
f 70/94/225 71/93/226 76/99/227 75/100/228
f 71/93/229 72/95/230 77/101/231 76/99/232
f 72/97/233 73/96/234 78/102/235 77/103/236
f 73/96/237 74/98/238 79/104/239 78/102/240
f 75/100/241 76/99/242 2/2/243 1/1/244
f 76/99/245 77/101/246 3/5/247 2/2/248
f 77/103/249 78/102/250 4/8/251 3/7/252
f 78/102/253 79/104/254 5/11/255 4/8/256
f 69/92/257 64/91/258 59/105/259 80/106/260
f 74/98/261 69/92/262 80/106/263 81/107/264
f 79/104/265 74/98/266 81/107/267 82/108/268
f 5/11/269 79/104/270 82/108/271 10/12/272
f 80/106/273 59/105/274 54/109/275 83/110/276
f 81/107/277 80/106/278 83/110/279 84/111/280
f 82/108/281 81/107/282 84/111/283 85/112/284
f 10/12/285 82/108/286 85/112/287 14/21/288
f 83/110/289 54/109/290 49/113/291 86/114/292
f 84/111/293 83/110/294 86/114/295 87/115/296
f 85/112/297 84/111/298 87/115/299 88/116/300
f 14/21/301 85/112/302 88/116/303 19/28/304
f 86/114/305 49/113/306 44/55/307 39/50/308
f 87/115/309 86/114/310 39/50/311 34/45/312
f 88/116/313 87/115/314 34/45/315 29/40/316
f 19/28/317 88/116/318 29/40/319 24/35/320
f 60/81/321 65/84/322 89/117/323 55/118/324
f 65/84/325 70/94/326 90/119/327 89/117/328
f 70/94/329 75/100/330 91/120/331 90/119/332
f 75/100/333 1/1/334 6/4/335 91/120/336
f 55/118/337 89/117/338 92/121/339 50/122/340
f 89/117/341 90/119/342 93/123/343 92/121/344
f 90/119/345 91/120/346 94/124/347 93/123/348
f 91/120/349 6/4/350 11/14/351 94/124/352
f 50/122/353 92/121/354 95/125/355 45/126/356
f 92/121/357 93/123/358 96/127/359 95/125/360
f 93/123/361 94/124/362 97/128/363 96/127/364
f 94/124/365 11/14/366 15/24/367 97/128/368
f 45/126/369 95/125/370 35/47/371 40/52/372
f 95/125/373 96/127/374 30/42/375 35/47/376
f 96/127/377 97/128/378 25/37/379 30/42/380
f 97/128/381 15/24/382 20/31/383 25/37/384
f 7/129/385 8/130/386 99/16/387 98/15/388
f 12/131/389 7/129/390 98/15/391 101/18/392
f 8/130/393 9/132/394 102/19/395 99/16/396
f 9/132/397 13/133/398 103/20/399 102/19/400
f 17/134/401 16/135/402 105/26/403 104/25/404
f 16/135/405 12/131/406 101/18/407 105/26/408
f 13/133/409 18/136/410 106/27/411 103/20/412
f 18/136/413 17/134/414 104/25/415 106/27/416
