# This file uses centimeters as units for non-parametric coordinates.

mtllib barnaclewhite.mtl
g default
v -0.194963 1.046248 0.194963
v -0.123836 1.046248 0.247672
v 0.000000 1.046248 0.283051
v 0.123836 1.046248 0.247672
v 0.194963 1.046248 0.194963
v -0.247672 1.046248 0.123836
v -0.151040 1.046248 0.151040
v 0.000000 1.046248 0.219570
v 0.151040 1.046248 0.151040
v 0.247672 1.046248 0.123836
v -0.283051 1.046248 -0.000000
v -0.219570 1.046248 0.000000
v 0.219570 1.046248 0.000000
v 0.283051 1.046248 -0.000000
v -0.247672 1.046248 -0.123836
v -0.151040 1.046248 -0.151040
v 0.000000 1.046248 -0.219570
v 0.151040 1.046248 -0.151040
v 0.247672 1.046248 -0.123836
v -0.194963 1.046248 -0.194963
v -0.123836 1.046248 -0.247672
v 0.000000 1.046248 -0.283051
v 0.123836 1.046248 -0.247672
v 0.194963 1.046248 -0.194963
v -0.294030 0.866999 -0.294030
v -0.186761 0.866999 -0.373522
v 0.000000 0.866999 -0.426879
v 0.186761 0.866999 -0.373522
v 0.294030 0.866999 -0.294030
v -0.344395 0.687751 -0.344395
v -0.218752 0.687751 -0.437503
v 0.000000 0.687751 -0.500000
v 0.218752 0.687751 -0.437503
v 0.344395 0.687751 -0.344395
v -0.294030 0.508502 -0.294030
v -0.186761 0.508502 -0.373522
v 0.000000 0.508502 -0.426879
v 0.186761 0.508502 -0.373522
v 0.294030 0.508502 -0.294030
v -0.194963 0.329253 -0.194963
v -0.123836 0.329253 -0.247672
v 0.000000 0.329253 -0.283051
v 0.123836 0.329253 -0.247672
v 0.194963 0.329253 -0.194963
v -0.247672 0.329253 -0.123836
v -0.141526 0.329253 -0.141526
v 0.000000 0.329253 -0.141526
v 0.141526 0.329253 -0.141526
v 0.247672 0.329253 -0.123836
v -0.283051 0.329253 0.000000
v -0.141526 0.329253 0.000000
v 0.000000 0.329253 0.000000
v 0.141526 0.329253 0.000000
v 0.283051 0.329253 0.000000
v -0.247672 0.329253 0.123836
v -0.141526 0.329253 0.141526
v 0.000000 0.329253 0.141526
v 0.141526 0.329253 0.141526
v 0.247672 0.329253 0.123836
v -0.194963 0.329253 0.194963
v -0.123836 0.329253 0.247672
v 0.000000 0.329253 0.283051
v 0.123836 0.329253 0.247672
v 0.194963 0.329253 0.194963
v -0.294030 0.508502 0.294030
v -0.186761 0.508502 0.373522
v 0.000000 0.508502 0.426879
v 0.186761 0.508502 0.373522
v 0.294030 0.508502 0.294030
v -0.344395 0.687751 0.344395
v -0.218752 0.687751 0.437503
v 0.000000 0.687751 0.500000
v 0.218752 0.687751 0.437503
v 0.344395 0.687751 0.344395
v -0.294030 0.866999 0.294030
v -0.186761 0.866999 0.373522
v 0.000000 0.866999 0.426879
v 0.186761 0.866999 0.373522
v 0.294030 0.866999 0.294030
v 0.373522 0.508502 0.186761
v 0.437503 0.687751 0.218752
v 0.373522 0.866999 0.186761
v 0.426879 0.508502 0.000000
v 0.500000 0.687751 0.000000
v 0.426879 0.866999 -0.000000
v 0.373522 0.508502 -0.186761
v 0.437503 0.687751 -0.218752
v 0.373522 0.866999 -0.186761
v -0.373522 0.508502 0.186761
v -0.437503 0.687751 0.218752
v -0.373522 0.866999 0.186761
v -0.426879 0.508502 0.000000
v -0.500000 0.687751 0.000000
v -0.426879 0.866999 -0.000000
v -0.373522 0.508502 -0.186761
v -0.437503 0.687751 -0.218752
v -0.373522 0.866999 -0.186761
v -0.292055 0.686215 0.292054
v -0.000000 0.686215 0.424565
v 0.000000 0.825337 -0.000000
v -0.424565 0.686215 0.000000
v 0.292055 0.686215 0.292055
v 0.424565 0.686215 -0.000000
v 0.000000 0.686215 -0.424565
v -0.292055 0.686215 -0.292054
v 0.292055 0.686215 -0.292055
vt 0.769717 0.521927
vt 0.799687 0.537229
vt 0.142667 0.704230
vt 0.737864 0.507158
vt 0.835543 0.569699
vt 0.257412 0.632983
vt 0.195008 0.531368
vt 0.386364 0.661050
vt 0.226585 0.515625
vt 0.260013 0.503594
vt 0.115303 0.833377
vt 0.685355 0.493354
vt 0.203267 0.753100
vt 0.267128 0.710005
vt 0.288695 0.810067
vt 0.189521 0.823784
vt 0.345317 0.719730
vt 0.386639 0.788283
vt 0.311558 0.491577
vt 0.458607 0.776099
vt 0.186966 0.948642
vt 0.631433 0.484640
vt 0.306508 0.908313
vt 0.226814 0.893667
vt 0.370812 0.861963
vt 0.367463 0.484405
vt 0.430941 0.905849
vt 0.555283 0.478111
vt 0.593490 0.480963
vt 0.316641 0.977796
vt 0.499635 0.476946
vt 0.442163 0.478667
vt 0.404986 0.483796
vt 0.565092 0.372032
vt 0.609252 0.375612
vt 0.500751 0.369064
vt 0.435424 0.371300
vt 0.390933 0.374310
vt 0.571251 0.276672
vt 0.618864 0.280962
vt 0.501555 0.274152
vt 0.431678 0.275217
vt 0.383669 0.277630
vt 0.574449 0.180394
vt 0.624124 0.183689
vt 0.502234 0.179872
vt 0.430499 0.181192
vt 0.380858 0.184516
vt 0.930840 0.953479
vt 0.953731 0.936515
vt 0.890985 0.964866
vt 0.851130 0.953479
vt 0.380514 0.082389
vt 0.936533 0.919317
vt 0.675663 0.079817
vt 0.890985 0.919317
vt 0.845436 0.919317
vt 0.331916 0.084743
vt 0.936533 0.873769
vt 0.744985 0.092681
vt 0.890985 0.873769
vt 0.845436 0.873769
vt 0.262788 0.089685
vt 0.936533 0.828221
vt 0.811001 0.103606
vt 0.890985 0.828221
vt 0.845436 0.828221
vt 0.196658 0.093793
vt 0.894557 0.110381
vt 0.853820 0.109324
vt 0.060610 0.094087
vt 0.112639 0.099198
vt 0.153153 0.096734
vt 0.917498 0.227732
vt 0.866651 0.221364
vt 0.014915 0.216355
vt 0.087513 0.217463
vt 0.137157 0.212994
vt 0.912657 0.337169
vt 0.860564 0.322620
vt 0.007248 0.344744
vt 0.088757 0.328003
vt 0.141301 0.317348
vt 0.873913 0.440235
vt 0.829882 0.421574
vt 0.057930 0.465787
vt 0.123648 0.432437
vt 0.169385 0.415559
vt 0.187192 0.206956
vt 0.192088 0.306541
vt 0.214533 0.402313
vt 0.259416 0.198324
vt 0.264363 0.293401
vt 0.280011 0.387392
vt 0.331131 0.189036
vt 0.335492 0.283138
vt 0.346324 0.378633
vt 0.817061 0.213004
vt 0.809866 0.310672
vt 0.784952 0.406460
vt 0.745544 0.201156
vt 0.737747 0.296104
vt 0.719122 0.389611
vt 0.673624 0.189274
vt 0.666817 0.285524
vt 0.653743 0.380126
vt 0.321424 0.513668
vt 0.408779 0.510612
vt 0.679669 0.516061
vt 0.589680 0.506924
vt 0.240480 0.537310
vt 0.754078 0.543435
vt 0.496917 0.500366
vt 0.180440 0.576980
vt 0.935722 0.476649
vt 0.155439 0.564237
vt 0.993176 0.360312
vt 0.993051 0.229383
vt 0.810510 0.581014
vt 0.811275 0.833914
vt 0.828238 0.811023
vt 0.970695 0.833914
vt 0.953731 0.811023
vt 0.799888 0.873769
vt 0.982081 0.873769
vt 0.811275 0.913624
vt 0.970695 0.913624
vt 0.828238 0.936515
vt 0.625822 0.073040
vt 0.851130 0.794059
vt 0.890985 0.782673
vt 0.948284 0.103891
vt 0.930840 0.794059
vt 0.429677 0.077877
vt 0.502174 0.073670
vt 0.575107 0.071353
vn -0.494780 0.714413 0.494780
vn -0.276342 0.740934 0.612088
vn 0.645232 -0.409085 -0.645232
vn -0.612088 0.740934 0.276342
vn -0.000000 0.734466 0.678646
vn 0.000000 -0.387379 -0.921921
vn 0.276342 0.740934 0.612088
vn -0.645232 -0.409085 -0.645232
vn 0.494780 0.714413 0.494780
vn 0.612088 0.740934 0.276342
vn 0.921921 -0.387379 0.000000
vn -0.678646 0.734466 -0.000000
vn -0.225717 0.947683 0.225717
vn 0.000000 0.972788 0.231696
vn -0.000000 1.000000 0.000000
vn -0.231697 0.972788 0.000000
vn 0.225717 0.947683 0.225717
vn 0.231696 0.972788 -0.000000
vn 0.678646 0.734466 0.000000
vn -0.921920 -0.387379 0.000000
vn 0.645232 -0.409085 0.645232
vn -0.612088 0.740934 -0.276342
vn 0.000000 0.972788 -0.231696
vn -0.225717 0.947683 -0.225717
vn 0.225717 0.947683 -0.225717
vn 0.612088 0.740934 -0.276342
vn -0.645232 -0.409085 0.645232
vn -0.276342 0.740934 -0.612088
vn -0.494780 0.714413 -0.494780
vn 0.000000 -0.387379 0.921921
vn 0.000000 0.734466 -0.678646
vn 0.276342 0.740934 -0.612088
vn 0.494780 0.714413 -0.494780
vn -0.359638 0.487040 -0.795898
vn -0.617681 0.486765 -0.617681
vn 0.000000 0.492340 -0.870403
vn 0.359638 0.487040 -0.795898
vn 0.617681 0.486765 -0.617681
vn -0.411905 0.000000 -0.911227
vn -0.707107 -0.000000 -0.707107
vn 0.000000 0.000000 -1.000000
vn 0.411905 -0.000000 -0.911227
vn 0.707107 -0.000000 -0.707107
vn -0.359638 -0.487040 -0.795898
vn -0.617681 -0.486765 -0.617681
vn 0.000000 -0.492340 -0.870403
vn 0.359638 -0.487040 -0.795898
vn 0.617681 -0.486765 -0.617681
vn -0.255941 -0.783018 -0.566901
vn -0.482130 -0.731506 -0.482130
vn 0.000000 -0.779583 -0.626299
vn 0.255941 -0.783018 -0.566901
vn 0.482130 -0.731506 -0.482130
vn 0.000000 -1.000000 0.000000
vn -0.566901 -0.783018 -0.255941
vn 0.000000 -1.000000 0.000000
vn 0.000000 -1.000000 0.000000
vn 0.566901 -0.783018 -0.255941
vn 0.000000 -1.000000 0.000000
vn -0.626299 -0.779583 0.000000
vn 0.000000 -1.000000 0.000000
vn 0.000000 -1.000000 0.000000
vn 0.626299 -0.779583 0.000000
vn 0.000000 -1.000000 0.000000
vn -0.566901 -0.783018 0.255941
vn 0.000000 -1.000000 0.000000
vn 0.000000 -1.000000 0.000000
vn 0.566901 -0.783018 0.255941
vn -0.255941 -0.783018 0.566901
vn -0.482130 -0.731506 0.482130
vn -0.000000 -0.779583 0.626299
vn 0.255941 -0.783018 0.566901
vn 0.482130 -0.731506 0.482130
vn -0.359638 -0.487040 0.795898
vn -0.617681 -0.486765 0.617681
vn -0.000000 -0.492340 0.870403
vn 0.359638 -0.487040 0.795898
vn 0.617681 -0.486765 0.617681
vn -0.411905 0.000000 0.911227
vn -0.707107 0.000000 0.707107
vn -0.000000 0.000000 1.000000
vn 0.411905 0.000000 0.911227
vn 0.707107 -0.000000 0.707107
vn -0.359638 0.487040 0.795898
vn -0.617681 0.486765 0.617681
vn -0.000000 0.492340 0.870403
vn 0.359638 0.487040 0.795898
vn 0.617681 0.486765 0.617681
vn 0.795898 -0.487040 0.359638
vn 0.911227 0.000000 0.411905
vn 0.795898 0.487040 0.359638
vn 0.870403 -0.492340 -0.000000
vn 1.000000 -0.000000 -0.000000
vn 0.870403 0.492340 -0.000000
vn 0.795898 -0.487040 -0.359638
vn 0.911227 -0.000000 -0.411905
vn 0.795898 0.487040 -0.359638
vn -0.795898 -0.487040 0.359638
vn -0.911227 0.000000 0.411905
vn -0.795898 0.487040 0.359638
vn -0.870403 -0.492340 0.000000
vn -1.000000 -0.000000 -0.000000
vn -0.870403 0.492340 -0.000000
vn -0.795898 -0.487040 -0.359638
vn -0.911227 -0.000000 -0.411905
vn -0.795898 0.487039 -0.359638
vn 0.366803 -0.460306 -0.808439
vn 0.366803 -0.460306 -0.808439
vn 0.808439 -0.460306 -0.366803
vn 0.808439 -0.460306 -0.366803
vn -0.366803 -0.460306 -0.808439
vn -0.366803 -0.460306 -0.808439
vn -0.808439 -0.460306 -0.366803
vn -0.808439 -0.460306 -0.366803
vn 0.366803 -0.460306 0.808439
vn 0.366803 -0.460306 0.808439
vn 0.808439 -0.460306 0.366803
vn 0.808439 -0.460306 0.366803
vn -0.808439 -0.460306 0.366803
vn -0.808439 -0.460306 0.366803
vn -0.366803 -0.460306 0.808439
vn -0.366803 -0.460306 0.808439
s 1
g pCube1
usemtl initialShadingGroup
f 1/1/1 2/2/2 7/112/3 6/4/4
f 2/2/2 3/5/5 8/119/6 7/112/3
f 3/116/5 4/7/7 9/111/8 8/114/6
f 4/7/7 5/9/9 10/10/10 9/111/8
f 6/4/4 7/112/3 12/109/11 11/12/12
s 2
f 98/13/13 99/14/14 100/15/15 101/16/16
f 99/14/14 102/17/17 103/18/18 100/15/15
s 1
f 9/111/8 10/10/10 14/19/19 13/107/20
f 11/12/12 12/109/11 16/110/21 15/22/22
s 2
f 101/16/16 100/15/15 104/23/23 105/24/24
f 100/15/15 103/18/18 106/25/25 104/23/23
s 1
f 13/107/20 14/19/19 19/26/26 18/108/27
f 15/22/22 16/110/21 21/28/28 20/29/29
f 16/110/21 17/113/30 22/31/31 21/28/28
f 17/113/30 18/108/27 23/32/32 22/31/31
f 18/108/27 19/26/26 24/33/33 23/32/32
f 20/29/29 21/28/28 26/34/34 25/35/35
f 21/28/28 22/31/31 27/36/36 26/34/34
f 22/31/31 23/32/32 28/37/37 27/36/36
f 23/32/32 24/33/33 29/38/38 28/37/37
f 25/35/35 26/34/34 31/39/39 30/40/40
f 26/34/34 27/36/36 32/41/41 31/39/39
f 27/36/36 28/37/37 33/42/42 32/41/41
f 28/37/37 29/38/38 34/43/43 33/42/42
f 30/40/40 31/39/39 36/44/44 35/45/45
f 31/39/39 32/41/41 37/46/46 36/44/44
f 32/41/41 33/42/42 38/47/47 37/46/46
f 33/42/42 34/43/43 39/48/48 38/47/47
f 35/45/45 36/44/44 41/136/49 40/129/50
f 36/44/44 37/46/46 42/135/51 41/136/49
f 37/46/46 38/47/47 43/134/52 42/135/51
f 38/47/47 39/48/48 44/53/53 43/134/52
f 40/50/50 41/49/49 46/54/54 45/127/55
f 41/49/49 42/51/51 47/56/56 46/54/54
f 42/51/51 43/52/52 48/57/57 47/56/56
f 43/52/52 44/128/53 49/126/58 48/57/57
f 45/127/55 46/54/54 51/59/59 50/125/60
f 46/54/54 47/56/56 52/61/61 51/59/59
f 47/56/56 48/57/57 53/62/62 52/61/61
f 48/57/57 49/126/58 54/124/63 53/62/62
f 50/125/60 51/59/59 56/64/64 55/122/65
f 51/59/59 52/61/61 57/66/66 56/64/64
f 52/61/61 53/62/62 58/67/67 57/66/66
f 53/62/62 54/124/63 59/120/68 58/67/67
f 55/122/65 56/64/64 61/133/69 60/123/70
f 56/64/64 57/66/66 62/131/71 61/133/69
f 57/66/66 58/67/67 63/130/72 62/131/71
f 58/67/67 59/120/68 64/121/73 63/130/72
f 60/70/70 61/69/69 66/74/74 65/75/75
f 61/69/69 62/132/71 67/118/76 66/74/74
f 62/71/71 63/72/72 68/77/77 67/76/76
f 63/72/72 64/73/73 69/78/78 68/77/77
f 65/75/75 66/74/74 71/79/79 70/80/80
f 66/74/74 67/118/76 72/117/81 71/79/79
f 67/76/76 68/77/77 73/82/82 72/81/81
f 68/77/77 69/78/78 74/83/83 73/82/82
f 70/80/80 71/79/79 76/84/84 75/85/85
f 71/79/79 72/117/81 77/115/86 76/84/84
f 72/81/81 73/82/82 78/87/87 77/86/86
f 73/82/82 74/83/83 79/88/88 78/87/87
f 75/85/85 76/84/84 2/2/2 1/1/1
f 76/84/84 77/115/86 3/5/5 2/2/2
f 77/86/86 78/87/87 4/7/7 3/116/5
f 78/87/87 79/88/88 5/9/9 4/7/7
f 69/78/78 64/73/73 59/68/68 80/89/89
f 74/83/83 69/78/78 80/89/89 81/90/90
f 79/88/88 74/83/83 81/90/90 82/91/91
f 5/9/9 79/88/88 82/91/91 10/10/10
f 80/89/89 59/68/68 54/63/63 83/92/92
f 81/90/90 80/89/89 83/92/92 84/93/93
f 82/91/91 81/90/90 84/93/93 85/94/94
f 10/10/10 82/91/91 85/94/94 14/19/19
f 83/92/92 54/63/63 49/58/58 86/95/95
f 84/93/93 83/92/92 86/95/95 87/96/96
f 85/94/94 84/93/93 87/96/96 88/97/97
f 14/19/19 85/94/94 88/97/97 19/26/26
f 86/95/95 49/58/58 44/53/53 39/48/48
f 87/96/96 86/95/95 39/48/48 34/43/43
f 88/97/97 87/96/96 34/43/43 29/38/38
f 19/26/26 88/97/97 29/38/38 24/33/33
f 60/70/70 65/75/75 89/98/98 55/65/65
f 65/75/75 70/80/80 90/99/99 89/98/98
f 70/80/80 75/85/85 91/100/100 90/99/99
f 75/85/85 1/1/1 6/4/4 91/100/100
f 55/65/65 89/98/98 92/101/101 50/60/60
f 89/98/98 90/99/99 93/102/102 92/101/101
f 90/99/99 91/100/100 94/103/103 93/102/102
f 91/100/100 6/4/4 11/12/12 94/103/103
f 50/60/60 92/101/101 95/104/104 45/55/55
f 92/101/101 93/102/102 96/105/105 95/104/104
f 93/102/102 94/103/103 97/106/106 96/105/105
f 94/103/103 11/12/12 15/22/22 97/106/106
f 45/55/55 95/104/104 35/45/45 40/129/50
f 95/104/104 96/105/105 30/40/40 35/45/45
f 96/105/105 97/106/106 25/35/35 30/40/40
f 97/106/106 15/22/22 20/29/29 25/35/35
f 7/3/3 8/6/6 99/14/107 98/13/108
f 12/11/11 7/3/3 98/13/109 101/16/110
f 8/6/6 9/8/8 102/17/111 99/14/112
f 9/8/8 13/20/20 103/18/113 102/17/114
f 17/30/30 16/21/21 105/24/115 104/23/116
f 16/21/21 12/11/11 101/16/117 105/24/118
f 13/20/20 18/27/27 106/25/119 103/18/120
f 18/27/27 17/30/30 104/23/121 106/25/122
