# This file uses centimeters as units for non-parametric coordinates.

mtllib Rock3.mtl
g default
v -0.368545 -0.500000 0.368545
v -0.368545 -0.250025 0.737016
v -0.729785 -0.065238 0.368545
v 0.737016 -0.250025 0.368545
v 0.093892 -0.250025 0.737016
v 0.368545 -0.500000 0.368545
v -0.646648 0.126577 0.449022
v -0.073500 0.031591 0.824855
v -0.250025 0.500000 0.250025
v 0.250025 0.500000 0.250025
v 0.250025 0.250025 0.500000
v 0.500000 0.250025 0.250025
v -0.677190 0.358407 -0.250025
v -0.250025 0.500000 -0.250025
v -0.250025 0.250025 -0.500000
v 0.296547 0.250025 -1.075345
v 0.250025 0.633961 -0.250025
v 0.652615 0.250025 -0.478388
v -0.737016 -0.250025 -0.368545
v -0.411747 -0.111284 -0.885348
v -0.368545 -0.500000 -0.368545
v 0.368545 -0.539181 -0.727365
v 0.399091 -0.250025 -1.172961
v 0.994608 -0.250025 -0.571462
vt 0.467805 0.166919
vt 0.586658 0.244785
vt 0.458020 0.386005
vt 0.510094 0.796367
vt 0.316575 0.493264
vt 0.221275 0.000977
vt 0.312917 0.065236
vt 0.040146 0.165957
vt 0.184726 0.728131
vt 0.987816 0.554391
vt 0.824168 0.810838
vt 0.395717 0.562082
vt 0.085235 0.876384
vt 0.427796 0.744960
vt 0.969289 0.574311
vt 0.444783 0.401671
vt 0.805881 0.999023
vt 0.596984 0.724032
vt 0.485201 0.555792
vt 0.000977 0.219684
vt 0.845780 0.384334
vt 0.626738 0.381688
vt 0.161636 0.295671
vt 0.432537 0.485182
vt 0.294995 0.725075
vt 0.998710 0.821524
vt 0.852710 0.523028
vt 0.653686 0.509518
vt 0.366268 0.321904
vt 0.426362 0.768605
vt 0.357371 0.906366
vt 0.000977 0.559874
vt 0.191829 0.551751
vt 0.225329 0.597013
vt 0.071162 0.699799
vt 0.694210 0.775605
vt 0.173868 0.869973
vt 0.530218 0.588411
vt 0.717650 0.772751
vt 0.847762 0.727636
vt 0.855415 0.781825
vt 0.304232 0.472547
vt 0.093984 0.411047
vt 0.417027 0.417626
vt 0.688251 0.513885
vt 0.765436 0.697829
vt 0.873036 0.855289
vt 0.998954 0.420606
vt 0.494272 0.803933
vt 0.135103 0.949937
vt 0.414320 0.764592
vt 0.970180 0.699106
vt 0.516763 0.602638
vt 0.443241 0.680565
vt 0.728331 0.916667
vt 0.000977 0.758950
vt 0.638147 0.894563
vt 0.801978 0.805831
vt 0.389617 0.871696
vt 0.522636 0.907588
vn -0.681226 -0.725969 0.094341
vn -0.681226 -0.725969 0.094341
vn -0.681226 -0.725969 0.094341
vn -0.681226 -0.725969 0.094341
vn 0.000000 -0.827537 0.561411
vn 0.000000 -0.827537 0.561411
vn 0.000000 -0.827537 0.561411
vn 0.000000 -0.827537 0.561411
vn -0.579305 0.180128 0.794959
vn -0.579305 0.180128 0.794959
vn -0.579305 0.180128 0.794959
vn -0.579305 0.180128 0.794959
vn 0.465973 -0.881535 0.075922
vn 0.465973 -0.881535 0.075922
vn 0.465973 -0.881535 0.075922
vn 0.465973 -0.881535 0.075922
vn 0.539276 0.320467 0.778770
vn 0.539276 0.320467 0.778770
vn 0.539276 0.320467 0.778770
vn 0.539276 0.320467 0.778770
vn -0.495527 0.851090 0.173492
vn -0.685492 0.728080 0.000000
vn -0.451643 0.867780 0.207307
vn 0.054800 0.758725 0.649102
vn 0.054800 0.758725 0.649102
vn 0.054800 0.758725 0.649102
vn 0.054800 0.758725 0.649102
vn 0.720803 0.674922 0.157873
vn 0.716369 0.678461 0.162807
vn 0.725933 0.670737 0.152095
vn -0.452608 0.213168 -0.865855
vn -0.640287 0.462302 -0.613441
vn -0.647783 0.474101 -0.596326
vn -0.384599 0.800354 -0.459911
vn -0.186121 0.694752 -0.694751
vn -0.390065 0.802264 -0.451910
vn 0.709678 0.422888 -0.563492
vn 0.709678 0.422888 -0.563492
vn 0.709678 0.422888 -0.563491
vn 0.709678 0.422888 -0.563492
vn -0.316340 -0.777524 -0.543494
vn -0.316340 -0.777524 -0.543494
vn -0.316340 -0.777524 -0.543494
vn -0.316340 -0.777524 -0.543494
vn 0.411665 -0.039298 0.910488
vn 0.396048 -0.050561 0.916837
vn 0.647403 0.151861 0.746865
vn -0.134258 0.981809 0.134258
vn -0.134258 0.981809 0.134258
vn -0.250519 0.935137 0.250519
vn -0.323258 0.583254 -0.745197
vn -0.510083 0.377779 -0.772721
vn -0.105002 0.747071 -0.656399
vn -0.021366 -0.999543 0.021366
vn -0.021366 -0.999543 0.021366
vn -0.021366 -0.999543 0.021366
vn -0.021366 -0.999543 0.021366
vn 0.847691 0.489480 0.204525
vn 0.823199 0.521013 0.225584
vn 0.836523 0.504260 0.214364
vn -0.992470 0.106392 0.060692
vn -0.897167 0.430430 -0.099106
vn -0.985018 0.169697 0.030708
vn -0.705675 -0.586340 0.397779
vn -0.705675 -0.586340 0.397779
vn -0.705675 -0.586340 0.397779
vn 0.400991 -0.591074 0.699884
vn 0.400991 -0.591074 0.699884
vn 0.400991 -0.591074 0.699884
vn -0.316389 0.685491 0.655744
vn -0.316389 0.685491 0.655744
vn -0.316389 0.685491 0.655744
vn 0.577350 0.577350 0.577350
vn 0.577350 0.577350 0.577350
vn 0.577350 0.577350 0.577350
vn -0.228202 0.688449 -0.688449
vn -0.228202 0.688449 -0.688449
vn -0.228202 0.688449 -0.688449
vn 0.548391 0.769592 -0.327100
vn 0.548391 0.769593 -0.327100
vn 0.548391 0.769593 -0.327100
vn -0.486584 -0.717240 -0.498801
vn -0.486584 -0.717240 -0.498801
vn -0.486584 -0.717240 -0.498801
vn 0.464165 -0.757209 -0.459549
vn 0.464165 -0.757209 -0.459549
vn 0.464165 -0.757209 -0.459549
vn 0.000000 -0.297763 0.954640
vn 0.000000 1.000000 0.000000
vn 0.694751 0.694752 0.186121
vn 0.871015 0.456101 0.182493
vn -0.722951 0.628834 -0.286199
vn -0.993929 0.083854 0.071235
vn -0.298918 0.901790 0.312127
vn -0.422859 0.812292 -0.401711
vn -0.724930 -0.014222 -0.688676
s off
g pCube1
usemtl initialShadingGroup
f 1/1/1 3/2/2 19/3/3 21/29/4
f 2/60/5 1/4/6 6/36/7 5/57/8
f 3/33/9 2/5/10 8/12/11 7/34/12
f 4/6/13 6/7/14 22/23/15 24/8/16
f 5/56/17 4/9/18 12/37/19 11/13/20
s 1
f 7/10/21 9/52/22 14/40/23
s off
f 9/25/24 8/12/25 11/54/26 10/51/27
s 2
f 17/18/28 12/14/29 18/38/30
s 3
f 13/15/31 15/27/32 19/48/33
s 4
f 15/46/34 14/39/35 17/18/36
s off
f 16/28/37 18/19/38 24/44/39 23/22/40
f 21/29/41 20/42/42 23/43/43 22/23/44
s 5
f 8/12/45 5/24/46 11/53/47
s 6
f 14/40/48 10/26/49 17/47/50
s 7
f 15/27/51 23/22/52 20/21/53
s off
f 21/29/54 22/23/55 6/7/56 1/1/57
s 8
f 4/9/58 24/30/59 18/31/60
s 9
f 19/32/61 3/33/62 7/34/63
s off
f 1/4/64 2/60/65 3/59/66
f 4/58/67 5/57/68 6/36/69
f 7/34/70 8/12/71 9/25/72
f 10/50/73 11/13/74 12/37/75
f 13/11/76 14/39/77 15/46/78
f 16/45/79 17/18/80 18/38/81
f 19/16/82 20/42/83 21/29/84
f 22/23/85 23/43/86 24/20/87
s 5
f 2/5/88 5/24/46 8/12/45
s 6
f 9/52/89 10/26/49 14/40/48
s 2
f 10/49/90 12/14/29 17/18/28
s 8
f 4/9/58 18/31/60 12/37/91
s 3
f 19/48/33 15/27/32 20/21/92
s 9
f 19/32/61 7/34/63 13/35/93
s 1
f 7/41/21 14/17/23 13/55/94
s 4
f 15/46/34 17/18/36 16/45/95
s 7
f 15/27/51 16/28/96 23/22/52
