# This file uses centimeters as units for non-parametric coordinates.

mtllib roofCorner.mtl
g default
v -1.145700 -0.068498 1.131795
v 0.994303 -0.068498 1.131795
v -1.145700 -0.086149 -0.999525
v 0.994303 1.162020 -0.999525
vt 0.000000 0.000000
vt 1.000000 0.000000
vt 1.000000 1.000000
vt 0.000000 1.000000
vn 0.000000 0.866025 0.500000
vn 0.000000 0.866025 0.500000
vn 0.000000 0.866025 0.500000
vn 0.000000 0.866025 0.500000
s 1
g pPlane2
usemtl lambert2SG
f 1/1/1 4/3/2 3/4/3
f 1/1/1 2/2/4 4/3/2
